<svg
  width="81"
  height="80"
  viewBox="0 0 81 80"
  fill="none"
  xmlns="http://www.w3.org/2000/svg"
>
  <rect width="81" height="80" fill="#F5F5F5" />
  <g id="SCHEDULE PICKUP FLOW">
    <g id="Schedule Pickup">
      <rect
        width="1440"
        height="1024"
        transform="translate(-1105 -182)"
        fill="white"
      />
      <g id="options">
        <g id="Frame 1000002793" filter="url(#filter0_dd_1774_4755)">
          <rect x="-188" y="-20" width="467" height="242" rx="4" fill="white" />
          <g id="Group 69">
            <g id="fluent:people-community-32-filled">
              <path
                id="Vector"
                d="M25.5 27.5C28.1522 27.5 30.6957 26.4464 32.5711 24.5711C34.4464 22.6957 35.5 20.1522 35.5 17.5C35.5 14.8478 34.4464 12.3043 32.5711 10.4289C30.6957 8.55357 28.1522 7.5 25.5 7.5C22.8478 7.5 20.3043 8.55357 18.4289 10.4289C16.5536 12.3043 15.5 14.8478 15.5 17.5C15.5 20.1522 16.5536 22.6957 18.4289 24.5711C20.3043 26.4464 22.8478 27.5 25.5 27.5ZM5.5 38.75C5.5 37.0924 6.15848 35.5027 7.33058 34.3306C8.50269 33.1585 10.0924 32.5 11.75 32.5H27.6875C27.066 34.0937 26.7481 35.7895 26.75 37.5C26.75 42.15 29.0575 46.2625 32.5925 48.75H26.75C24.9218 48.7498 23.1285 49.2507 21.5651 50.1983C20.0017 51.146 18.728 52.5041 17.8825 54.125C13.0925 52.8925 10.0275 50.495 8.135 47.775C5.5 43.9875 5.5 40.065 5.5 39.375V38.75ZM63.1175 54.125C67.9075 52.8925 70.9725 50.495 72.865 47.775C75.5 43.9875 75.5 40.0625 75.5 39.375V38.75C75.5 37.0924 74.8415 35.5027 73.6694 34.3306C72.4973 33.1585 70.9076 32.5 69.25 32.5H53.3125C53.9175 34.05 54.25 35.735 54.25 37.5C54.25 42.15 51.9425 46.2625 48.4075 48.75H54.25C56.0782 48.7498 57.8715 49.2507 59.4349 50.1983C60.9983 51.146 62.272 52.5041 63.1175 54.125ZM65.5 17.5C65.5 20.1522 64.4464 22.6957 62.5711 24.5711C60.6957 26.4464 58.1522 27.5 55.5 27.5C52.8478 27.5 50.3043 26.4464 48.4289 24.5711C46.5536 22.6957 45.5 20.1522 45.5 17.5C45.5 14.8478 46.5536 12.3043 48.4289 10.4289C50.3043 8.55357 52.8478 7.5 55.5 7.5C58.1522 7.5 60.6957 8.55357 62.5711 10.4289C64.4464 12.3043 65.5 14.8478 65.5 17.5ZM20.5 58.75C20.5 57.0924 21.1585 55.5027 22.3306 54.3306C23.5027 53.1585 25.0924 52.5 26.75 52.5H54.25C55.0708 52.5 55.8835 52.6617 56.6418 52.9758C57.4001 53.2898 58.0891 53.7502 58.6694 54.3306C59.2498 54.9109 59.7102 55.5999 60.0242 56.3582C60.3383 57.1165 60.5 57.9292 60.5 58.75V59.375C60.5 60.0625 60.5 63.9875 57.865 67.775C55.115 71.7275 49.89 75 40.5 75C31.1125 75 25.885 71.7275 23.135 67.775C20.5 63.9875 20.5 60.065 20.5 59.375V58.75ZM40.5 47.5C43.1522 47.5 45.6957 46.4464 47.5711 44.5711C49.4464 42.6957 50.5 40.1522 50.5 37.5C50.5 34.8478 49.4464 32.3043 47.5711 30.4289C45.6957 28.5536 43.1522 27.5 40.5 27.5C37.8478 27.5 35.3043 28.5536 33.4289 30.4289C31.5536 32.3043 30.5 34.8478 30.5 37.5C30.5 40.1522 31.5536 42.6957 33.4289 44.5711C35.3043 46.4464 37.8478 47.5 40.5 47.5Z"
                fill="#C27123"
              />
            </g>
          </g>
        </g>
      </g>
    </g>
    <path
      d="M-1203 -823H16411V-847H-1203V-823ZM16401 -833V3766H16425V-833H16401ZM16411 3756H-1203V3780H16411V3756ZM-1193 3766V-833H-1217V3766H-1193ZM-1203 3756C-1197.48 3756 -1193 3760.47 -1193 3766H-1217C-1217 3773.74 -1210.73 3780 -1203 3780V3756ZM16401 3766C16401 3760.48 16405.5 3756 16411 3756V3780C16418.7 3780 16425 3773.73 16425 3766H16401ZM16411 -823C16405.5 -823 16401 -827.473 16401 -833H16425C16425 -840.736 16418.7 -847 16411 -847V-823ZM-1203 -847C-1210.73 -847 -1217 -840.731 -1217 -833H-1193C-1193 -827.478 -1197.48 -823 -1203 -823V-847Z"
      fill="#C27123"
    />
  </g>
  <defs>
    <filter
      id="filter0_dd_1774_4755"
      x="-198"
      y="-26"
      width="487"
      height="262"
      filterUnits="userSpaceOnUse"
      color-interpolation-filters="sRGB"
    >
      <feFlood flood-opacity="0" result="BackgroundImageFix" />
      <feColorMatrix
        in="SourceAlpha"
        type="matrix"
        values="0 0 0 0 0 0 0 0 0 0 0 0 0 0 0 0 0 0 127 0"
        result="hardAlpha"
      />
      <feOffset dy="4" />
      <feGaussianBlur stdDeviation="5" />
      <feColorMatrix
        type="matrix"
        values="0 0 0 0 0 0 0 0 0 0 0 0 0 0 0 0 0 0 0.08 0"
      />
      <feBlend
        mode="normal"
        in2="BackgroundImageFix"
        result="effect1_dropShadow_1774_4755"
      />
      <feColorMatrix
        in="SourceAlpha"
        type="matrix"
        values="0 0 0 0 0 0 0 0 0 0 0 0 0 0 0 0 0 0 127 0"
        result="hardAlpha"
      />
      <feOffset dy="1" />
      <feGaussianBlur stdDeviation="2" />
      <feColorMatrix
        type="matrix"
        values="0 0 0 0 0 0 0 0 0 0 0 0 0 0 0 0 0 0 0.04 0"
      />
      <feBlend
        mode="normal"
        in2="effect1_dropShadow_1774_4755"
        result="effect2_dropShadow_1774_4755"
      />
      <feBlend
        mode="normal"
        in="SourceGraphic"
        in2="effect2_dropShadow_1774_4755"
        result="shape"
      />
    </filter>
  </defs>
</svg>
