<svg width="35" height="35" viewBox="0 0 35 35" fill="none" xmlns="http://www.w3.org/2000/svg">
<circle cx="17.5" cy="17.5" r="17.5" fill="#FFD9B4"/>
<path d="M16.1792 25.5961L19.1295 27.2188L19.13 27.2191C19.1667 27.2393 19.208 27.25 19.25 27.25C19.292 27.25 19.3333 27.2393 19.37 27.2191L19.3705 27.2188L26.8705 23.0938C26.9097 23.0722 26.9424 23.0405 26.9652 23.002C26.988 22.9635 27 22.9196 27 22.8749L16.1792 25.5961ZM16.1792 25.5961L16.42 25.1589L18.259 26.1705L19 26.5781V25.7324V17.6931V17.3975L18.741 17.255L11.6297 13.3439C11.6296 13.3438 11.6295 13.3438 11.6295 13.3438C11.5903 13.3222 11.5577 13.2905 11.535 13.2521C11.5122 13.2135 11.5002 13.1696 11.5002 13.1249C11.5002 13.0801 11.5122 13.0362 11.535 12.9977C11.5577 12.9592 11.5904 12.9276 11.6295 12.906C11.6295 12.9059 11.6296 12.9059 11.6297 12.9059L19.1295 8.78098L19.1295 8.78096C19.1664 8.76065 19.2079 8.75 19.25 8.75C19.2921 8.75 19.3336 8.76065 19.3705 8.78096L19.3705 8.78098L26.8705 12.906C26.8705 12.906 26.8705 12.906 26.8705 12.906C26.9097 12.9275 26.9424 12.9592 26.9652 12.9977C26.988 13.0363 27 13.0802 27 13.1249C27 13.1249 27 13.1249 27 13.125V22.8748L16.1792 25.5961ZM19.4909 9.41825L19.25 9.28576L19.0091 9.41825L13.0653 12.6867L12.2686 13.1249L13.0653 13.563L19.0091 16.8315L19.25 16.964L19.4909 16.8315L25.4347 13.563L26.2314 13.1249L25.4347 12.6867L19.4909 9.41825ZM26.241 22.8697L26.5 22.7273V22.4316V14.3924V13.5467L25.759 13.9543L19.759 17.2543L19.5 17.3967V17.6924V25.7316V26.5773L20.241 26.1697L26.241 22.8697Z" fill="#121212" stroke="#C27123"/>
<path d="M11.7462 17.25C9.67625 17.25 8 18.93 8 21C8 23.07 9.67625 24.75 11.7462 24.75C13.82 24.75 15.5 23.07 15.5 21C15.5 18.93 13.82 17.25 11.7462 17.25ZM11.75 24C10.0925 24 8.75 22.6575 8.75 21C8.75 19.3425 10.0925 18 11.75 18C13.4075 18 14.75 19.3425 14.75 21C14.75 22.6575 13.4075 24 11.75 24Z" fill="#C27123" stroke="#C27123" strokeWidth="0.5"/>
<path d="M11.9375 19.125H11.375V21.375L13.3438 22.5562L13.625 22.095L11.9375 21.0938V19.125Z" fill="#C27123"/>
</svg>
