<svg width="83" height="75" viewBox="0 0 83 75" fill="none" xmlns="http://www.w3.org/2000/svg">
<g id="Group">
<path id="Vector" d="M26.9981 4.36624C26.9981 4.36624 36.4476 15.1991 56.7917 2.82165C74.8592 -8.17066 82.6 16.6849 80.474 27.3788C77.7199 41.2318 60.1754 49.1367 65.6942 59.754C71.213 70.3713 46.025 80.7954 36.8158 65.3479C25.3598 46.1317 18.6304 58.4214 10.1928 56.6725C4.13716 55.4175 -5.17733 37.7941 5.53847 28.3397C14.5557 20.384 11.3505 16.4591 10.1612 12.8066C8.44592 7.53888 17.4875 -3.92056 26.9981 4.36624Z" fill="#FFF3E8"/>
<g id="Group_2">
<g id="Group_3">
<g id="Group_4">
<path id="Vector_2" d="M15.763 57.5669L64.5821 57.4879C65.0128 57.4872 65.4392 57.4017 65.8369 57.2363C66.2346 57.0708 66.5957 56.8286 66.8998 56.5235C67.2039 56.2185 67.4449 55.8565 67.6091 55.4583C67.7733 55.0601 67.8574 54.6334 67.8567 54.2027L67.808 24.0472C67.8073 23.6165 67.7218 23.1901 67.5564 22.7925C67.3909 22.3948 67.1487 22.0336 66.8436 21.7295C66.5386 21.4255 66.1766 21.1845 65.7784 21.0203C65.3802 20.8561 64.9536 20.7719 64.5229 20.7726L15.377 20.7791C13.7029 20.7791 12.3636 19.1767 12.4238 17.8032V20.8567L12.4778 54.2921C12.4785 54.7229 12.564 55.1493 12.7294 55.5469C12.8949 55.9446 13.1371 56.3059 13.4421 56.6099C13.7472 56.914 14.1091 57.1551 14.5074 57.3193C14.9056 57.4835 15.3322 57.5676 15.763 57.5669Z" fill="#FFD9B4"/>
<path id="Vector_3" d="M49.0827 32.8059L67.8967 32.7753C68.5514 32.7743 69.1798 33.0334 69.6435 33.4956C70.1073 33.9578 70.3684 34.5853 70.3694 35.2401L70.382 42.9999C70.3831 43.6547 70.124 44.283 69.6618 44.7467C69.1996 45.2105 68.572 45.4716 67.9173 45.4727L49.1033 45.5032C48.9781 45.5034 48.8578 45.4538 48.7691 45.3654C48.6804 45.2769 48.6304 45.1569 48.6302 45.0316L48.6111 33.279C48.6109 33.1537 48.6605 33.0335 48.7489 32.9448C48.8374 32.856 48.9574 32.8061 49.0827 32.8059Z" fill="#FFA64D"/>
<path id="Vector_4" d="M55.1928 42.0521C56.7981 42.0521 58.0995 40.7507 58.0995 39.1454C58.0995 37.5401 56.7981 36.2388 55.1928 36.2388C53.5875 36.2388 52.2861 37.5401 52.2861 39.1454C52.2861 40.7507 53.5875 42.0521 55.1928 42.0521Z" fill="#FAFAFA"/>
</g>
<path id="Vector_5" d="M14.8926 14.4609H57.0629C57.7176 14.4609 58.3456 14.721 58.8085 15.184C59.2715 15.647 59.5316 16.2749 59.5316 16.9297V20.7792H15.5965C14.7551 20.7792 13.9481 20.4449 13.3531 19.85C12.7581 19.255 12.4238 18.448 12.4238 17.6065V16.9297C12.4238 16.2749 12.6839 15.647 13.1469 15.184C13.6099 14.721 14.2378 14.4609 14.8926 14.4609Z" fill="#FFA64D"/>
</g>
<g id="Group_5">
<path id="Vector_6" d="M47.7188 17.2356C47.6614 17.2356 47.6059 17.2157 47.5616 17.1792C47.5173 17.1428 47.4871 17.092 47.4762 17.0358C47.4653 16.9795 47.4743 16.9211 47.5017 16.8707C47.5291 16.8204 47.5731 16.7811 47.6263 16.7597C47.6362 16.7556 47.8794 16.6578 48.3255 16.4937C48.3869 16.4711 48.4548 16.4738 48.5143 16.5013C48.5737 16.5287 48.6198 16.5787 48.6424 16.6401C48.665 16.7016 48.6623 16.7695 48.6348 16.8289C48.6074 16.8884 48.5574 16.9345 48.496 16.9571C48.057 17.1186 47.8134 17.2167 47.811 17.2176C47.7817 17.2294 47.7504 17.2355 47.7188 17.2356Z" fill="#FFA64D"/>
<path id="Vector_7" d="M58.0505 74.0851C57.8785 74.0851 57.7031 74.0816 57.5292 74.0747C57.4966 74.0737 57.4646 74.0662 57.435 74.0527C57.4054 74.0392 57.3787 74.02 57.3565 73.9961C57.3343 73.9723 57.3171 73.9443 57.3057 73.9138C57.2944 73.8832 57.2893 73.8508 57.2905 73.8182C57.2918 73.7857 57.2995 73.7537 57.3132 73.7242C57.3269 73.6946 57.3463 73.6681 57.3703 73.6461C57.3943 73.6241 57.4224 73.607 57.453 73.5959C57.4836 73.5848 57.5161 73.5798 57.5486 73.5814C58.0363 73.601 58.5247 73.5916 59.0113 73.5532C59.0436 73.5506 59.0761 73.5544 59.107 73.5643C59.1378 73.5743 59.1664 73.5903 59.1911 73.6113C59.2158 73.6323 59.2361 73.658 59.2508 73.6868C59.2656 73.7157 59.2745 73.7472 59.2771 73.7795C59.2797 73.8118 59.2759 73.8443 59.2659 73.8752C59.256 73.906 59.24 73.9346 59.219 73.9593C59.198 73.984 59.1723 74.0043 59.1435 74.019C59.1146 74.0338 59.0831 74.0427 59.0508 74.0453C58.7233 74.0717 58.3868 74.085 58.0505 74.0851ZM56.0541 73.9362C56.0421 73.9362 56.0302 73.9353 56.0183 73.9336C55.5366 73.8638 55.0362 73.768 54.5311 73.649C54.4674 73.634 54.4122 73.5943 54.3778 73.5386C54.3433 73.4829 54.3324 73.4158 54.3474 73.3521C54.3624 73.2883 54.4021 73.2332 54.4578 73.1987C54.5135 73.1643 54.5806 73.1534 54.6443 73.1684C55.1355 73.2841 55.6216 73.3772 56.0892 73.4449C56.1509 73.4538 56.2071 73.4857 56.2462 73.5343C56.2854 73.5829 56.3047 73.6446 56.3002 73.7068C56.2958 73.7691 56.2679 73.8274 56.2223 73.8699C56.1766 73.9124 56.1165 73.9361 56.0541 73.9361V73.9362ZM60.5069 73.8312C60.4459 73.8312 60.3871 73.8086 60.3418 73.7678C60.2964 73.7269 60.2678 73.6708 60.2614 73.6101C60.2551 73.5494 60.2714 73.4885 60.3073 73.4392C60.3431 73.3898 60.396 73.3555 60.4557 73.3428C60.9318 73.2411 61.4007 73.1082 61.8594 72.945C61.9211 72.9231 61.989 72.9265 62.0481 72.9546C62.1072 72.9827 62.1528 73.0332 62.1747 73.0949C62.1967 73.1566 62.1932 73.2245 62.1651 73.2836C62.137 73.3427 62.0865 73.3883 62.0248 73.4102C61.5457 73.5807 61.056 73.7194 60.5587 73.8257C60.5417 73.8293 60.5243 73.8311 60.5069 73.8311V73.8312ZM53.1477 73.2596C53.1228 73.2596 53.0979 73.2558 53.0741 73.2484C52.6154 73.1052 52.136 72.9399 51.6483 72.7571C51.587 72.7341 51.5374 72.6877 51.5103 72.628C51.4832 72.5684 51.4809 72.5005 51.5039 72.4392C51.5269 72.3778 51.5733 72.3282 51.633 72.3011C51.6926 72.274 51.7605 72.2717 51.8218 72.2947C52.3008 72.4744 52.7714 72.6367 53.2212 72.7771C53.2776 72.7947 53.3258 72.8319 53.357 72.8819C53.3883 72.932 53.4006 72.9916 53.3917 73.0499C53.3829 73.1083 53.3533 73.1615 53.3086 73.2C53.2638 73.2385 53.2067 73.2596 53.1477 73.2596ZM63.3128 72.8364C63.2573 72.8365 63.2033 72.8178 63.1597 72.7834C63.116 72.749 63.0853 72.7009 63.0724 72.6468C63.0595 72.5927 63.0652 72.5359 63.0887 72.4855C63.1121 72.4351 63.1518 72.3941 63.2014 72.3691C63.6371 72.1485 64.0599 71.9036 64.468 71.6355C64.4951 71.6174 64.5255 71.6048 64.5575 71.5985C64.5895 71.5922 64.6224 71.5923 64.6544 71.5988C64.6863 71.6053 64.7167 71.6181 64.7437 71.6364C64.7707 71.6547 64.7938 71.6781 64.8116 71.7054C64.8295 71.7327 64.8418 71.7632 64.8478 71.7952C64.8538 71.8273 64.8534 71.8602 64.8467 71.8921C64.8399 71.924 64.8268 71.9542 64.8083 71.9811C64.7898 72.0079 64.7661 72.0308 64.7387 72.0484C64.3151 72.3267 63.8761 72.581 63.4238 72.8099C63.3894 72.8273 63.3514 72.8364 63.3128 72.8364ZM50.348 72.216C50.3148 72.216 50.2819 72.2093 50.2513 72.1962C49.8152 72.0104 49.3535 71.8041 48.879 71.5831C48.8493 71.5696 48.8225 71.5504 48.8003 71.5265C48.7781 71.5026 48.7608 71.4746 48.7495 71.444C48.7381 71.4134 48.733 71.3808 48.7343 71.3482C48.7356 71.3156 48.7434 71.2836 48.7572 71.254C48.771 71.2244 48.7905 71.1979 48.8146 71.1759C48.8387 71.1539 48.8669 71.1369 48.8976 71.1259C48.9284 71.1149 48.961 71.1101 48.9935 71.1117C49.0261 71.1134 49.0581 71.1215 49.0875 71.1356C49.5571 71.3543 50.0137 71.5583 50.4449 71.742C50.4972 71.7643 50.5403 71.8041 50.5667 71.8545C50.5932 71.9048 50.6014 71.9628 50.59 72.0186C50.5786 72.0744 50.5483 72.1245 50.5042 72.1604C50.4601 72.1964 50.4049 72.2161 50.348 72.216V72.216ZM65.8082 71.2087C65.7572 71.2087 65.7074 71.1929 65.6657 71.1634C65.624 71.1339 65.5924 71.0923 65.5754 71.0441C65.5584 70.9959 65.5568 70.9437 65.5707 70.8946C65.5846 70.8454 65.6134 70.8018 65.6532 70.7697C66.0229 70.4715 66.3945 70.1445 66.7577 69.7975C66.8051 69.7523 66.8685 69.7278 66.9339 69.7293C66.9994 69.7308 67.0616 69.7583 67.1068 69.8056C67.152 69.853 67.1766 69.9164 67.175 69.9818C67.1735 70.0473 67.1461 70.1095 67.0987 70.1547C66.7255 70.511 66.3433 70.8473 65.9631 71.154C65.9193 71.1895 65.8647 71.2089 65.8083 71.2089L65.8082 71.2087ZM47.636 70.9575C47.598 70.9575 47.5606 70.9487 47.5266 70.9318C47.1101 70.7255 46.6724 70.5041 46.189 70.2548C46.1602 70.24 46.1346 70.2196 46.1137 70.1948C46.0927 70.1701 46.0769 70.1414 46.067 70.1105C46.0571 70.0797 46.0534 70.0471 46.0561 70.0148C46.0588 69.9825 46.0679 69.9511 46.0827 69.9222C46.0976 69.8934 46.118 69.8678 46.1427 69.8469C46.1675 69.8259 46.1961 69.8101 46.227 69.8002C46.2579 69.7903 46.2904 69.7866 46.3227 69.7893C46.355 69.792 46.3865 69.8011 46.4153 69.8159C46.8964 70.064 47.3316 70.2843 47.7457 70.4894C47.7957 70.5141 47.8358 70.555 47.8595 70.6054C47.8833 70.6558 47.8893 70.7127 47.8766 70.767C47.8638 70.8212 47.8331 70.8696 47.7895 70.9042C47.7458 70.9388 47.6917 70.9576 47.636 70.9575ZM44.9764 69.5904C44.9363 69.5904 44.8969 69.5806 44.8615 69.5618C44.4504 69.3452 44.0377 69.1268 43.6234 68.9066L43.5394 68.8621C43.5104 68.8472 43.4847 68.8266 43.4637 68.8016C43.4427 68.7766 43.4269 68.7477 43.4172 68.7165C43.4074 68.6853 43.4039 68.6526 43.407 68.6201C43.41 68.5876 43.4194 68.556 43.4347 68.5272C43.45 68.4983 43.4708 68.4728 43.496 68.4521C43.5213 68.4314 43.5503 68.4158 43.5816 68.4064C43.6129 68.397 43.6457 68.3939 43.6781 68.3973C43.7106 68.4006 43.7421 68.4104 43.7708 68.426L43.8547 68.4704C44.2686 68.69 44.681 68.9082 45.0917 69.1251C45.1406 69.1508 45.1794 69.1922 45.202 69.2425C45.2245 69.2929 45.2296 69.3493 45.2163 69.4029C45.203 69.4565 45.1722 69.5041 45.1287 69.538C45.0852 69.572 45.0316 69.5905 44.9764 69.5904L44.9764 69.5904ZM67.9692 69.1537C67.9214 69.1537 67.8746 69.1399 67.8345 69.1138C67.7945 69.0877 67.7628 69.0505 67.7435 69.0068C67.7241 68.963 67.7179 68.9146 67.7255 68.8674C67.7332 68.8202 67.7544 68.7762 67.7866 68.7408C68.1072 68.388 68.4303 68.0101 68.7466 67.6171C68.788 67.567 68.8474 67.5351 68.9121 67.5285C68.9768 67.5219 69.0414 67.5411 69.0921 67.5819C69.1427 67.6227 69.1752 67.6818 69.1825 67.7463C69.1898 67.8109 69.1713 67.8758 69.1311 67.9269C68.8086 68.3274 68.4791 68.7129 68.1519 69.0729C68.1288 69.0984 68.1006 69.1188 68.0692 69.1328C68.0377 69.1467 68.0037 69.154 67.9692 69.1539V69.1537ZM42.3349 68.193C42.295 68.193 42.2556 68.1832 42.2202 68.1646C41.7314 67.9075 41.2985 67.6822 40.897 67.4758C40.8387 67.4459 40.7947 67.394 40.7747 67.3317C40.7546 67.2693 40.7602 67.2015 40.7901 67.1432C40.8201 67.085 40.8719 67.041 40.9343 67.0209C40.9967 67.0009 41.0644 67.0065 41.1227 67.0364C41.5256 67.2435 41.9597 67.4695 42.45 67.7274C42.4988 67.753 42.5377 67.7944 42.5603 67.8447C42.5829 67.8951 42.588 67.9516 42.5748 68.0052C42.5615 68.0587 42.5307 68.1063 42.4872 68.1404C42.4437 68.1744 42.3901 68.1928 42.3349 68.1928L42.3349 68.193ZM69.8447 66.8323C69.7993 66.8323 69.7547 66.8197 69.7159 66.7959C69.6771 66.7721 69.6456 66.7381 69.625 66.6976C69.6043 66.657 69.5953 66.6116 69.5988 66.5662C69.6024 66.5209 69.6184 66.4774 69.6451 66.4405C69.9265 66.0524 70.2104 65.6423 70.4888 65.2215C70.5249 65.1669 70.5812 65.1289 70.6454 65.1158C70.7095 65.1028 70.7763 65.1157 70.8309 65.1519C70.8855 65.188 70.9235 65.2443 70.9366 65.3085C70.9496 65.3726 70.9367 65.4394 70.9005 65.494C70.6184 65.9206 70.3304 66.3366 70.0448 66.7304C70.0219 66.7621 69.9919 66.7878 69.9571 66.8056C69.9223 66.8233 69.8838 66.8326 69.8447 66.8325V66.8323ZM39.6755 66.8292C39.6376 66.8292 39.6001 66.8204 39.5662 66.8034C39.0958 66.5706 38.6568 66.3587 38.224 66.1556C38.1655 66.1273 38.1206 66.0771 38.0989 66.0159C38.0773 65.9546 38.0806 65.8874 38.1082 65.8286C38.1357 65.7698 38.1854 65.7242 38.2463 65.7018C38.3073 65.6793 38.3746 65.6818 38.4337 65.7087C38.8696 65.9132 39.3118 66.1265 39.7853 66.361C39.8352 66.3858 39.8753 66.4266 39.899 66.477C39.9228 66.5274 39.9288 66.5844 39.9161 66.6386C39.9034 66.6929 39.8727 66.7412 39.829 66.7758C39.7853 66.8104 39.7313 66.8292 39.6755 66.8292ZM36.9663 65.5613C36.9323 65.5613 36.8987 65.5543 36.8675 65.5406C36.3999 65.3365 35.9378 65.1437 35.4943 64.9676C35.4642 64.9557 35.4367 64.9379 35.4134 64.9153C35.3902 64.8927 35.3716 64.8658 35.3587 64.836C35.3459 64.8062 35.339 64.7742 35.3385 64.7418C35.3381 64.7094 35.344 64.6772 35.3559 64.6471C35.3679 64.6169 35.3857 64.5895 35.4083 64.5662C35.4309 64.5429 35.4578 64.5243 35.4876 64.5115C35.5173 64.4986 35.5493 64.4918 35.5818 64.4913C35.6142 64.4908 35.6464 64.4967 35.6765 64.5087C36.1251 64.6868 36.5923 64.8818 37.065 65.0882C37.117 65.1108 37.1596 65.1507 37.1857 65.2011C37.2117 65.2515 37.2196 65.3093 37.208 65.3649C37.1964 65.4204 37.1661 65.4703 37.122 65.506C37.078 65.5418 37.023 65.5613 36.9663 65.5613ZM34.1844 64.4603C34.1566 64.4603 34.1289 64.4555 34.1027 64.4463C33.626 64.2789 33.1512 64.1245 32.6914 63.9871C32.6603 63.9778 32.6314 63.9625 32.6062 63.9421C32.5811 63.9216 32.5602 63.8964 32.5448 63.8679C32.5294 63.8393 32.5198 63.8081 32.5164 63.7758C32.5131 63.7436 32.5162 63.711 32.5255 63.6799C32.5347 63.6488 32.55 63.6199 32.5705 63.5948C32.591 63.5696 32.6162 63.5487 32.6447 63.5333C32.6732 63.5179 32.7045 63.5083 32.7368 63.505C32.769 63.5016 32.8016 63.5047 32.8327 63.514C33.3 63.6536 33.7823 63.8105 34.2662 63.9804C34.3212 63.9997 34.3676 64.0379 34.3972 64.0881C34.4268 64.1383 34.4376 64.1974 34.4278 64.2549C34.418 64.3123 34.3882 64.3645 34.3437 64.4021C34.2991 64.4396 34.2427 64.4603 34.1844 64.4603ZM71.4944 64.3439C71.4506 64.3438 71.4076 64.3321 71.3698 64.31C71.332 64.2878 71.3008 64.256 71.2794 64.2178C71.258 64.1796 71.2471 64.1364 71.2479 64.0926C71.2486 64.0488 71.2611 64.006 71.2838 63.9686C71.5344 63.5574 71.7875 63.1264 72.0358 62.6876C72.0513 62.6587 72.0726 62.6331 72.0981 62.6125C72.1237 62.5919 72.1531 62.5766 72.1847 62.5675C72.2163 62.5584 72.2494 62.5556 72.282 62.5595C72.3146 62.5633 72.3462 62.5737 72.3748 62.5898C72.4033 62.606 72.4284 62.6278 72.4485 62.6538C72.4686 62.6798 72.4833 62.7095 72.4917 62.7413C72.5001 62.773 72.5022 62.8062 72.4976 62.8387C72.4931 62.8713 72.4821 62.9026 72.4653 62.9308C72.2143 63.3743 71.9586 63.8097 71.7054 64.2256C71.6833 64.2618 71.6523 64.2917 71.6154 64.3124C71.5784 64.3332 71.5367 64.3441 71.4944 64.344V64.3439ZM20.992 63.7822C20.9329 63.7822 20.8756 63.761 20.8308 63.7223C20.786 63.6837 20.7565 63.6302 20.7478 63.5717C20.7391 63.5132 20.7517 63.4535 20.7833 63.4034C20.8149 63.3534 20.8634 63.3164 20.9201 63.2992C21.4033 63.1516 21.896 63.0227 22.3844 62.9159C22.4483 62.9019 22.5152 62.914 22.5703 62.9493C22.6255 62.9847 22.6643 63.0405 22.6782 63.1044C22.6922 63.1684 22.6802 63.2353 22.6449 63.2904C22.6095 63.3455 22.5537 63.3843 22.4897 63.3983C22.0144 63.502 21.5348 63.6277 21.0642 63.7714C21.0408 63.7786 21.0165 63.7822 20.992 63.7822ZM31.3188 63.6083C31.2993 63.6083 31.2799 63.606 31.261 63.6014C30.7743 63.4847 30.2873 63.3833 29.8135 63.3002C29.7498 63.2881 29.6934 63.2514 29.6566 63.1981C29.6197 63.1447 29.6053 63.079 29.6165 63.0151C29.6277 62.9513 29.6636 62.8943 29.7164 62.8567C29.7692 62.8191 29.8347 62.8037 29.8987 62.8139C30.3826 62.8987 30.8796 63.0021 31.3762 63.1212C31.4351 63.1352 31.4867 63.1704 31.5214 63.22C31.556 63.2696 31.5713 63.3302 31.5642 63.3903C31.5571 63.4504 31.5282 63.5058 31.4829 63.546C31.4377 63.5861 31.3793 63.6083 31.3188 63.6082V63.6083ZM23.908 63.1458C23.8454 63.1458 23.785 63.1219 23.7393 63.0791C23.6936 63.0362 23.6658 62.9776 23.6617 62.9151C23.6576 62.8525 23.6775 62.7908 23.7172 62.7423C23.757 62.6939 23.8137 62.6624 23.8758 62.6542C24.3724 62.5881 24.8798 62.5418 25.3836 62.5166C25.416 62.515 25.4484 62.5198 25.479 62.5307C25.5095 62.5416 25.5376 62.5584 25.5616 62.5801C25.5857 62.6019 25.6052 62.6281 25.6191 62.6574C25.633 62.6867 25.641 62.7185 25.6426 62.7509C25.6442 62.7833 25.6394 62.8156 25.6286 62.8462C25.6177 62.8767 25.6008 62.9048 25.5791 62.9289C25.5573 62.9529 25.5311 62.9724 25.5018 62.9863C25.4725 63.0002 25.4407 63.0082 25.4083 63.0098C24.9179 63.0345 24.4242 63.0793 23.9409 63.1436C23.93 63.1451 23.919 63.1458 23.908 63.1458ZM28.3791 63.0964C28.3704 63.0964 28.3616 63.096 28.353 63.0951C27.8605 63.0434 27.3655 63.0099 26.8822 62.9955C26.8168 62.9935 26.7547 62.9656 26.7098 62.9179C26.6649 62.8702 26.6408 62.8066 26.6428 62.7412C26.6447 62.6757 26.6726 62.6137 26.7203 62.5688C26.768 62.5239 26.8316 62.4997 26.897 62.5017C27.3927 62.5165 27.9 62.5511 28.4046 62.6039C28.4674 62.6106 28.5253 62.6411 28.5663 62.6891C28.6073 62.7372 28.6283 62.7991 28.6251 62.8622C28.6218 62.9252 28.5945 62.9847 28.5487 63.0282C28.503 63.0718 28.4423 63.0961 28.3791 63.0963L28.3791 63.0964ZM72.9674 61.7461C72.9248 61.7461 72.883 61.7351 72.8459 61.7141C72.8089 61.6931 72.7779 61.663 72.756 61.6265C72.734 61.59 72.7219 61.5485 72.7207 61.5059C72.7196 61.4634 72.7295 61.4213 72.7494 61.3837C72.9759 60.9559 73.2044 60.5107 73.4288 60.0604C73.4432 60.0314 73.4633 60.0055 73.4877 59.9842C73.5122 59.9629 73.5406 59.9467 73.5713 59.9364C73.6021 59.9261 73.6346 59.922 73.6669 59.9242C73.6992 59.9265 73.7308 59.9351 73.7598 59.9495C73.7889 59.964 73.8148 59.984 73.836 60.0085C73.8573 60.0329 73.8736 60.0613 73.8839 60.0921C73.8942 60.1228 73.8983 60.1553 73.896 60.1876C73.8938 60.22 73.8852 60.2516 73.8707 60.2806C73.6446 60.7345 73.4141 61.1834 73.1858 61.6148C73.1647 61.6545 73.1333 61.6876 73.0948 61.7108C73.0563 61.7339 73.0123 61.7461 72.9674 61.7461V61.7461ZM74.3005 59.0731C74.2589 59.073 74.218 59.0625 74.1816 59.0424C74.1451 59.0224 74.1144 58.9935 74.0921 58.9583C74.0698 58.9232 74.0568 58.883 74.0542 58.8415C74.0516 58.8 74.0596 58.7585 74.0773 58.7209C74.2842 58.2818 74.4931 57.8265 74.6983 57.3677C74.7116 57.3381 74.7305 57.3114 74.7541 57.2892C74.7776 57.2669 74.8053 57.2495 74.8356 57.2379C74.8659 57.2263 74.8982 57.2209 74.9306 57.2218C74.963 57.2227 74.9949 57.2299 75.0245 57.2432C75.0541 57.2564 75.0808 57.2754 75.1031 57.2989C75.1254 57.3225 75.1428 57.3502 75.1543 57.3805C75.1659 57.4108 75.1714 57.4431 75.1705 57.4755C75.1696 57.5079 75.1623 57.5398 75.1491 57.5694C74.9425 58.0311 74.7322 58.4893 74.524 58.9313C74.5041 58.9737 74.4725 59.0094 74.433 59.0345C74.3935 59.0596 74.3476 59.0729 74.3008 59.0729L74.3005 59.0731ZM75.5213 56.3465C75.4805 56.3465 75.4403 56.3364 75.4044 56.317C75.3684 56.2977 75.3378 56.2697 75.3153 56.2357C75.2928 56.2016 75.2791 56.1625 75.2754 56.1219C75.2717 56.0812 75.2782 56.0403 75.2942 56.0028C75.4848 55.5558 75.6776 55.0931 75.8674 54.6275C75.8793 54.5971 75.8972 54.5693 75.9199 54.5458C75.9427 54.5222 75.9699 54.5035 76 54.4906C76.03 54.4777 76.0624 54.4709 76.0951 54.4706C76.1278 54.4703 76.1602 54.4765 76.1905 54.4889C76.2208 54.5012 76.2484 54.5195 76.2715 54.5425C76.2947 54.5656 76.3131 54.5931 76.3256 54.6233C76.338 54.6536 76.3444 54.686 76.3442 54.7187C76.344 54.7514 76.3374 54.7838 76.3246 54.8139C76.1338 55.2819 75.9399 55.7471 75.7484 56.1964C75.7294 56.2409 75.6978 56.2788 75.6574 56.3055C75.6171 56.3322 75.5698 56.3464 75.5214 56.3464L75.5213 56.3465ZM76.6498 53.5802C76.6096 53.5802 76.5701 53.5704 76.5345 53.5516C76.499 53.5329 76.4686 53.5057 76.446 53.4725C76.4233 53.4393 76.4091 53.4011 76.4046 53.3612C76.4001 53.3213 76.4053 53.2809 76.42 53.2434C76.5972 52.79 76.7767 52.3218 76.9532 51.8515C76.9763 51.7902 77.0227 51.7405 77.0823 51.7135C77.1419 51.6864 77.2099 51.6842 77.2712 51.7072C77.3325 51.7302 77.3821 51.7767 77.4091 51.8363C77.4362 51.8959 77.4385 51.9639 77.4154 52.0252C77.2377 52.4974 77.0576 52.9678 76.8797 53.4232C76.8616 53.4694 76.83 53.5091 76.789 53.5371C76.7481 53.5651 76.6996 53.5801 76.65 53.5802L76.6498 53.5802ZM77.7015 50.7836C77.6619 50.7836 77.6228 50.7741 77.5877 50.7558C77.5525 50.7375 77.5223 50.711 77.4995 50.6785C77.4767 50.6461 77.4621 50.6086 77.4569 50.5693C77.4517 50.5301 77.456 50.4901 77.4694 50.4528C77.6355 49.9941 77.8037 49.5214 77.9693 49.0478C77.9797 49.0168 77.9962 48.9882 78.0177 48.9637C78.0392 48.9391 78.0654 48.919 78.0948 48.9047C78.1241 48.8903 78.1561 48.8819 78.1887 48.88C78.2213 48.878 78.254 48.8826 78.2848 48.8933C78.3157 48.9041 78.3441 48.9209 78.3684 48.9428C78.3927 48.9646 78.4124 48.9911 78.4264 49.0206C78.4404 49.0501 78.4484 49.0821 78.4499 49.1148C78.4515 49.1474 78.4465 49.18 78.4354 49.2107C78.2692 49.686 78.1004 50.1605 77.9337 50.6209C77.9164 50.6685 77.8848 50.7097 77.8433 50.7388C77.8018 50.7679 77.7524 50.7836 77.7017 50.7836L77.7015 50.7836ZM78.6862 47.9623C78.6471 47.9623 78.6085 47.953 78.5737 47.9352C78.5388 47.9173 78.5087 47.8914 78.4859 47.8597C78.463 47.8279 78.448 47.7911 78.4421 47.7524C78.4363 47.7137 78.4397 47.6742 78.4521 47.6371C78.6114 47.1609 78.7671 46.6841 78.9149 46.22C78.9348 46.1576 78.9786 46.1057 79.0368 46.0756C79.0949 46.0455 79.1627 46.0398 79.2251 46.0597C79.2875 46.0795 79.3394 46.1234 79.3695 46.1816C79.3995 46.2397 79.4053 46.3075 79.3854 46.3699C79.2368 46.8362 79.0803 47.3153 78.9204 47.7937C78.904 47.8427 78.8725 47.8854 78.8306 47.9157C78.7886 47.9459 78.7382 47.9622 78.6864 47.9622L78.6862 47.9623ZM79.5926 45.1145C79.5541 45.1146 79.5161 45.1056 79.4817 45.0883C79.4473 45.071 79.4174 45.0459 79.3944 45.0149C79.3714 44.984 79.356 44.9482 79.3493 44.9102C79.3427 44.8723 79.345 44.8333 79.3562 44.7964C79.5004 44.3175 79.6409 43.8363 79.7739 43.3661C79.7917 43.3031 79.8339 43.2497 79.891 43.2178C79.9482 43.1858 80.0157 43.1779 80.0787 43.1957C80.1417 43.2135 80.195 43.2556 80.227 43.3128C80.2589 43.3699 80.2669 43.4374 80.2491 43.5004C80.1153 43.9733 79.974 44.4573 79.8289 44.9388C79.8136 44.9896 79.7824 45.0341 79.7399 45.0657C79.6974 45.0974 79.6458 45.1145 79.5928 45.1146L79.5926 45.1145ZM80.4049 42.2385C80.3671 42.2386 80.3299 42.2299 80.296 42.2133C80.262 42.1966 80.2324 42.1724 80.2093 42.1425C80.1862 42.1126 80.1703 42.0778 80.1628 42.0407C80.1553 42.0037 80.1564 41.9655 80.166 41.9289C80.2934 41.444 80.4159 40.9581 80.53 40.4848C80.5459 40.4217 80.586 40.3674 80.6417 40.3336C80.6974 40.2999 80.7641 40.2896 80.8274 40.3048C80.8907 40.3201 80.9454 40.3597 80.9796 40.4151C81.0138 40.4705 81.0247 40.5372 81.01 40.6006C80.8951 41.0771 80.7718 41.5663 80.6436 42.0544C80.6297 42.1071 80.5988 42.1537 80.5557 42.187C80.5126 42.2203 80.4596 42.2384 80.4051 42.2385L80.4049 42.2385ZM81.1047 39.3332C81.0678 39.3332 81.0314 39.325 80.9981 39.3091C80.9648 39.2932 80.9355 39.27 80.9123 39.2413C80.8891 39.2126 80.8727 39.179 80.8642 39.1431C80.8557 39.1072 80.8554 39.0698 80.8632 39.0338C80.97 38.5435 81.0706 38.053 81.1622 37.576C81.1681 37.5439 81.1803 37.5133 81.1981 37.486C81.2158 37.4587 81.2388 37.4351 81.2657 37.4167C81.2926 37.3984 81.3229 37.3855 81.3548 37.3788C81.3867 37.3722 81.4196 37.372 81.4516 37.3781C81.4837 37.3843 81.5141 37.3967 81.5413 37.4147C81.5685 37.4327 81.5918 37.4558 81.61 37.4829C81.6282 37.51 81.6408 37.5403 81.6472 37.5723C81.6535 37.6043 81.6535 37.6372 81.6471 37.6691C81.5547 38.1501 81.4533 38.6446 81.3459 39.1388C81.3339 39.1938 81.3035 39.2432 81.2596 39.2785C81.2157 39.3139 81.1611 39.3332 81.1047 39.3332ZM81.6672 36.3984C81.6314 36.3984 81.5961 36.3906 81.5635 36.3755C81.531 36.3605 81.5022 36.3386 81.479 36.3113C81.4558 36.284 81.4388 36.252 81.4292 36.2175C81.4196 36.183 81.4176 36.1468 81.4233 36.1115C81.5048 35.615 81.5784 35.1202 81.6422 34.641C81.6462 34.6086 81.6565 34.5772 81.6726 34.5489C81.6888 34.5205 81.7104 34.4956 81.7362 34.4756C81.762 34.4556 81.7915 34.4409 81.8231 34.4324C81.8546 34.4239 81.8875 34.4218 81.9198 34.4261C81.9522 34.4304 81.9834 34.4411 82.0116 34.4575C82.0398 34.474 82.0645 34.4958 82.0842 34.5219C82.1039 34.5479 82.1182 34.5776 82.1264 34.6092C82.1345 34.6409 82.1363 34.6738 82.1316 34.7061C82.0674 35.1903 81.9928 35.69 81.9106 36.1914C81.9011 36.2491 81.8715 36.3015 81.827 36.3394C81.7825 36.3773 81.726 36.3982 81.6676 36.3984H81.6672ZM82.0595 33.4363C82.0514 33.4363 82.0432 33.4358 82.0348 33.435C82.0026 33.4318 81.9713 33.4223 81.9427 33.4071C81.9141 33.3918 81.8888 33.371 81.8682 33.3459C81.8476 33.3209 81.8322 33.292 81.8228 33.261C81.8134 33.2299 81.8102 33.1974 81.8134 33.1651C81.8628 32.6651 81.9023 32.1672 81.9314 31.6851C81.9353 31.6198 81.965 31.5587 82.014 31.5152C82.063 31.4718 82.1272 31.4496 82.1926 31.4535C82.258 31.4574 82.3191 31.4872 82.3625 31.5362C82.4059 31.5852 82.4281 31.6494 82.4242 31.7148C82.3949 32.2031 82.3547 32.7072 82.3048 33.2136C82.2988 33.2745 82.2704 33.331 82.2251 33.3721C82.1798 33.4132 82.1209 33.4361 82.0597 33.4363H82.0595ZM82.236 30.454H82.2319C82.1994 30.4535 82.1674 30.4466 82.1377 30.4337C82.1079 30.4208 82.081 30.4022 82.0585 30.3789C82.0359 30.3556 82.0182 30.3281 82.0063 30.2979C81.9944 30.2678 81.9885 30.2356 81.989 30.2031C81.9918 30.0291 81.9933 29.8553 81.9933 29.6866C81.9933 29.3626 81.9881 29.0378 81.9776 28.7213C81.9762 28.6887 81.9813 28.6561 81.9925 28.6255C82.0038 28.5948 82.021 28.5667 82.0431 28.5428C82.0653 28.5189 82.092 28.4995 82.1217 28.486C82.1514 28.4724 82.1835 28.4649 82.2161 28.4638C82.2487 28.4627 82.2812 28.4681 82.3118 28.4797C82.3423 28.4913 82.3702 28.5088 82.3939 28.5312C82.4176 28.5536 82.4367 28.5806 82.4499 28.6104C82.4631 28.6402 82.4703 28.6724 82.4711 28.705C82.4817 29.0269 82.4871 29.3572 82.487 29.6866C82.487 29.858 82.4856 30.0345 82.4827 30.2111C82.4816 30.2758 82.4551 30.3375 82.409 30.3829C82.3629 30.4283 82.3008 30.4537 82.2361 30.4538L82.236 30.454ZM82.1334 27.4702C82.0718 27.4701 82.0124 27.447 81.967 27.4054C81.9215 27.3638 81.8933 27.3068 81.8878 27.2454C81.8427 26.7456 81.7824 26.2525 81.7085 25.78C81.703 25.7478 81.704 25.7148 81.7114 25.6829C81.7188 25.6511 81.7324 25.621 81.7515 25.5944C81.7706 25.5679 81.7947 25.5454 81.8226 25.5283C81.8505 25.5111 81.8814 25.4997 81.9138 25.4947C81.9461 25.4896 81.9791 25.491 82.0108 25.4988C82.0426 25.5066 82.0725 25.5207 82.0987 25.5401C82.125 25.5596 82.1472 25.5841 82.1639 25.6121C82.1807 25.6402 82.1917 25.6714 82.1963 25.7037C82.2719 26.1868 82.3336 26.6906 82.3795 27.2011C82.3824 27.2334 82.3789 27.2659 82.3693 27.2969C82.3596 27.3278 82.3439 27.3566 82.3231 27.3815C82.3024 27.4063 82.2769 27.4269 82.2482 27.4419C82.2195 27.457 82.1881 27.4662 82.1558 27.4691C82.1485 27.4696 82.141 27.47 82.1335 27.47L82.1334 27.4702ZM81.6677 24.5241C81.612 24.524 81.558 24.5052 81.5144 24.4706C81.4709 24.436 81.4402 24.3877 81.4275 24.3335C81.3136 23.8474 81.1807 23.3707 81.0317 22.9173C81.0208 22.8863 81.0162 22.8534 81.0182 22.8206C81.0201 22.7878 81.0286 22.7557 81.0432 22.7262C81.0577 22.6967 81.0779 22.6704 81.1028 22.6489C81.1276 22.6273 81.1565 22.6109 81.1877 22.6007C81.2189 22.5905 81.2519 22.5866 81.2846 22.5892C81.3174 22.5919 81.3493 22.6011 81.3785 22.6162C81.4076 22.6314 81.4335 22.6522 81.4545 22.6775C81.4755 22.7028 81.4912 22.732 81.5008 22.7635C81.6539 23.2306 81.791 23.7209 81.9081 24.2208C81.9167 24.2571 81.9168 24.2948 81.9087 24.3311C81.9006 24.3674 81.8844 24.4015 81.8612 24.4306C81.8381 24.4598 81.8086 24.4833 81.7751 24.4995C81.7416 24.5157 81.7048 24.5241 81.6676 24.5241H81.6677ZM80.7345 21.6939C80.6866 21.6939 80.6397 21.6799 80.5995 21.6538C80.5594 21.6276 80.5277 21.5903 80.5084 21.5464C80.3119 21.0992 80.0911 20.663 79.8471 20.2399C79.8159 20.1833 79.8081 20.1167 79.8254 20.0544C79.8428 19.9922 79.8838 19.9392 79.9398 19.9069C79.9958 19.8745 80.0622 19.8655 80.1248 19.8816C80.1874 19.8977 80.2412 19.9377 80.2746 19.993C80.5276 20.4317 80.7565 20.884 80.9603 21.3476C80.9769 21.3852 80.9838 21.4263 80.9805 21.4672C80.9771 21.5082 80.9636 21.5476 80.9412 21.582C80.9188 21.6164 80.8882 21.6447 80.8521 21.6643C80.816 21.6838 80.7756 21.6941 80.7345 21.6941V21.6939ZM79.2402 19.1182C79.2018 19.1182 79.1639 19.1093 79.1296 19.0922C79.0953 19.075 79.0654 19.0501 79.0424 19.0194C78.7502 18.6293 78.4342 18.2577 78.0961 17.9066C78.0507 17.8595 78.0258 17.7962 78.027 17.7308C78.0282 17.6653 78.0554 17.603 78.1025 17.5576C78.1497 17.5121 78.2129 17.4873 78.2784 17.4885C78.3439 17.4897 78.4062 17.5168 78.4516 17.564C78.8038 17.9298 79.1331 18.317 79.4376 18.7234C79.4651 18.7601 79.4818 18.8037 79.486 18.8494C79.4901 18.895 79.4814 18.9409 79.4609 18.9819C79.4404 19.0229 79.4089 19.0574 79.3699 19.0815C79.3309 19.1056 79.2859 19.1184 79.2401 19.1184L79.2402 19.1182ZM77.1735 16.9747C77.1171 16.9747 77.0624 16.9554 77.0185 16.9198C76.6386 16.6134 76.2409 16.3298 75.8275 16.0706C75.772 16.0358 75.7327 15.9804 75.7181 15.9165C75.7034 15.8527 75.7148 15.7857 75.7496 15.7302C75.7844 15.6748 75.8398 15.6354 75.9036 15.6208C75.9675 15.6062 76.0345 15.6176 76.09 15.6524C76.52 15.922 76.9337 16.217 77.3288 16.5357C77.3685 16.5678 77.3973 16.6114 77.4112 16.6605C77.4251 16.7097 77.4234 16.7619 77.4064 16.8101C77.3894 16.8582 77.3578 16.8999 77.3161 16.9293C77.2744 16.9588 77.2246 16.9746 77.1735 16.9746V16.9747ZM49.8207 16.4777C49.7621 16.4778 49.7054 16.4569 49.6607 16.419C49.6161 16.381 49.5864 16.3284 49.5769 16.2706C49.5675 16.2127 49.579 16.1534 49.6093 16.1032C49.6396 16.0531 49.6867 16.0153 49.7423 15.9967C50.2081 15.8405 50.689 15.686 51.1717 15.5375C51.2028 15.5274 51.2357 15.5236 51.2683 15.5263C51.3009 15.5291 51.3326 15.5382 51.3617 15.5533C51.3907 15.5684 51.4165 15.5891 51.4374 15.6143C51.4584 15.6394 51.4741 15.6684 51.4838 15.6997C51.4934 15.731 51.4967 15.7639 51.4935 15.7964C51.4903 15.829 51.4807 15.8606 51.4652 15.8894C51.4497 15.9182 51.4286 15.9437 51.4032 15.9643C51.3777 15.9849 51.3484 16.0002 51.317 16.0094C50.8381 16.1569 50.3612 16.3102 49.8992 16.465C49.8739 16.4735 49.8474 16.4778 49.8207 16.4777ZM52.6782 15.5969C52.6186 15.5969 52.561 15.5753 52.516 15.5362C52.4711 15.497 52.4418 15.4429 52.4336 15.3838C52.4255 15.3247 52.439 15.2647 52.4716 15.2148C52.5043 15.1649 52.5539 15.1285 52.6113 15.1124C53.0923 14.9765 53.5799 14.845 54.0606 14.7216C54.1237 14.706 54.1904 14.716 54.2462 14.7494C54.3021 14.7828 54.3424 14.8369 54.3586 14.8999C54.3748 14.9629 54.3655 15.0297 54.3327 15.0858C54.2999 15.142 54.2462 15.1829 54.1834 15.1998C53.7065 15.3223 53.2228 15.4528 52.7455 15.5875C52.7237 15.5937 52.701 15.5969 52.6783 15.5969H52.6782ZM74.652 15.3867C74.6148 15.3867 74.5782 15.3783 74.5448 15.3621C74.1142 15.1538 73.659 14.9614 73.1919 14.79C73.1308 14.7672 73.0813 14.7211 73.0541 14.6619C73.0269 14.6026 73.0242 14.535 73.0467 14.4738C73.0691 14.4126 73.1149 14.3628 73.1739 14.3352C73.233 14.3076 73.3006 14.3045 73.3619 14.3265C73.8442 14.5034 74.3145 14.7023 74.7596 14.9175C74.8099 14.9419 74.8505 14.9826 74.8746 15.033C74.8988 15.0834 74.9051 15.1405 74.8926 15.195C74.8801 15.2494 74.8495 15.298 74.8058 15.3329C74.7621 15.3677 74.7078 15.3866 74.652 15.3866L74.652 15.3867ZM55.5742 14.8535C55.5135 14.8535 55.455 14.8312 55.4097 14.7908C55.3645 14.7504 55.3357 14.6947 55.3289 14.6344C55.322 14.5742 55.3376 14.5135 55.3727 14.464C55.4077 14.4145 55.4598 14.3796 55.5189 14.366C56.0088 14.2529 56.5024 14.1457 56.986 14.0473C57.0502 14.0342 57.1169 14.0472 57.1715 14.0833C57.2261 14.1195 57.2641 14.1758 57.2772 14.24C57.2902 14.3042 57.2773 14.3709 57.2411 14.4255C57.205 14.4801 57.1486 14.5181 57.0845 14.5312C56.6051 14.6288 56.1157 14.7351 55.6299 14.8472C55.6116 14.8513 55.593 14.8534 55.5742 14.8533L55.5742 14.8535ZM71.8531 14.3541C71.8313 14.354 71.8095 14.3511 71.7884 14.3454C71.3265 14.2204 70.8427 14.1095 70.3505 14.0158C70.3184 14.0101 70.2876 13.9981 70.2602 13.9804C70.2327 13.9627 70.209 13.9398 70.1904 13.9129C70.1719 13.886 70.1588 13.8557 70.1521 13.8237C70.1454 13.7917 70.145 13.7587 70.1511 13.7266C70.1572 13.6945 70.1697 13.6639 70.1877 13.6367C70.2057 13.6094 70.2289 13.586 70.2561 13.5678C70.2832 13.5496 70.3137 13.5369 70.3457 13.5306C70.3778 13.5242 70.4108 13.5243 70.4428 13.5308C70.9473 13.6268 71.4434 13.7405 71.9175 13.8688C71.9753 13.8844 72.0255 13.9204 72.0587 13.9702C72.0919 14.02 72.1059 14.0802 72.0981 14.1396C72.0902 14.1989 72.0611 14.2534 72.016 14.2928C71.971 14.3323 71.9132 14.3541 71.8533 14.3541H71.8531ZM58.5036 14.2581C58.4418 14.2581 58.3823 14.2349 58.3368 14.1931C58.2912 14.1513 58.263 14.0939 58.2577 14.0324C58.2524 13.9708 58.2704 13.9095 58.3081 13.8606C58.3458 13.8116 58.4005 13.7786 58.4614 13.768C58.9589 13.681 59.4581 13.6014 59.9449 13.5314C60.0097 13.522 60.0756 13.5389 60.128 13.5781C60.1805 13.6173 60.2152 13.6758 60.2245 13.7406C60.2338 13.8054 60.217 13.8713 60.1777 13.9237C60.1385 13.9762 60.08 14.0109 60.0152 14.0202C59.5333 14.0896 59.0391 14.1683 58.5464 14.2545C58.5323 14.2568 58.5181 14.2579 58.5039 14.2579L58.5036 14.2581ZM61.4615 13.8339C61.3983 13.8338 61.3376 13.8096 61.2918 13.7662C61.246 13.7228 61.2186 13.6635 61.2152 13.6004C61.2117 13.5374 61.2326 13.4755 61.2734 13.4273C61.3142 13.3792 61.3719 13.3485 61.4347 13.3416C61.9393 13.2858 62.4429 13.2393 62.9314 13.2034C62.9967 13.1985 63.0612 13.2199 63.1108 13.2626C63.1604 13.3054 63.191 13.3661 63.1958 13.4314C63.2006 13.4967 63.1793 13.5612 63.1366 13.6108C63.0938 13.6604 63.0331 13.691 62.9678 13.6958C62.4852 13.7314 61.9876 13.7774 61.4889 13.8325C61.4798 13.8334 61.4708 13.8338 61.4617 13.8337L61.4615 13.8339ZM68.9203 13.7911C68.9102 13.7911 68.9001 13.7905 68.8901 13.7893C68.4133 13.731 67.9174 13.6856 67.4158 13.6538C67.3834 13.6518 67.3517 13.6435 67.3224 13.6293C67.2932 13.6151 67.2671 13.5952 67.2456 13.5709C67.224 13.5465 67.2075 13.5182 67.197 13.4874C67.1864 13.4567 67.1821 13.4242 67.1841 13.3918C67.1862 13.3593 67.1946 13.3276 67.2089 13.2984C67.2233 13.2693 67.2432 13.2432 67.2676 13.2218C67.2921 13.2004 67.3205 13.1839 67.3513 13.1735C67.382 13.1631 67.4146 13.1588 67.447 13.161C67.9579 13.1933 68.4636 13.24 68.9499 13.2993C69.0124 13.3068 69.0696 13.3379 69.1099 13.3862C69.1502 13.4345 69.1706 13.4964 69.1668 13.5592C69.163 13.622 69.1354 13.681 69.0896 13.7241C69.0438 13.7672 68.9832 13.7912 68.9203 13.7912V13.7911ZM64.442 13.6157C64.3765 13.6168 64.3133 13.5918 64.2662 13.5463C64.2192 13.5007 64.1921 13.4384 64.1911 13.3729C64.19 13.3074 64.215 13.2442 64.2605 13.1971C64.306 13.1501 64.3684 13.123 64.4339 13.122C64.8127 13.1093 65.1913 13.1028 65.5588 13.1028C65.6882 13.1018 65.8132 13.1036 65.9402 13.1051C66.0057 13.1055 66.0683 13.1319 66.1144 13.1785C66.1604 13.225 66.186 13.288 66.1856 13.3535C66.1853 13.4189 66.1589 13.4816 66.1123 13.5276C66.0657 13.5736 66.0028 13.5993 65.9373 13.5989H65.9343C65.81 13.5974 65.6855 13.5966 65.561 13.5966H65.5588C65.1967 13.5966 64.8238 13.603 64.4504 13.6155C64.4479 13.6155 64.445 13.6155 64.4422 13.6155L64.442 13.6157Z" fill="#FFA64D"/>
<path id="Vector_8" d="M18.8555 64.5761C18.7988 64.5762 18.7438 64.5567 18.6998 64.521C18.6557 64.4853 18.6253 64.4355 18.6137 64.38C18.602 64.3244 18.6098 64.2666 18.6358 64.2162C18.6618 64.1658 18.7043 64.1258 18.7562 64.1031C18.9851 64.0028 19.218 63.9056 19.4484 63.8146C19.4786 63.8027 19.5108 63.7969 19.5432 63.7974C19.5756 63.7979 19.6076 63.8048 19.6374 63.8177C19.6671 63.8306 19.694 63.8492 19.7166 63.8725C19.7391 63.8958 19.7569 63.9233 19.7688 63.9535C19.7807 63.9836 19.7866 64.0158 19.786 64.0483C19.7855 64.0807 19.7786 64.1127 19.7657 64.1424C19.7528 64.1722 19.7342 64.1991 19.7109 64.2216C19.6876 64.2442 19.6601 64.2619 19.6299 64.2738C19.4052 64.3627 19.1779 64.4575 18.9545 64.5553C18.9233 64.569 18.8896 64.5761 18.8555 64.5761Z" fill="#FFA64D"/>
</g>
<g id="Group_6">
<path id="Vector_9" d="M15.9959 64.8257C16.3718 64.7309 16.5388 64.1084 16.3689 63.4353C16.1991 62.7622 15.7566 62.2934 15.3808 62.3883C15.0049 62.4832 14.8379 63.1057 15.0078 63.7788C15.1776 64.4519 15.62 64.9206 15.9959 64.8257Z" fill="#FFD9B4"/>
<path id="Vector_10" d="M17.4206 68.4065C17.7828 68.2684 17.876 67.6306 17.6287 66.9819C17.3813 66.3333 16.8872 65.9194 16.525 66.0575C16.1628 66.1957 16.0696 66.8334 16.3169 67.4821C16.5643 68.1307 17.0584 68.5446 17.4206 68.4065Z" fill="#FFD9B4"/>
<path id="Vector_11" d="M16.1626 66.0074C16.4493 66.0074 16.6817 65.775 16.6817 65.4883C16.6817 65.2016 16.4493 64.9692 16.1626 64.9692C15.876 64.9692 15.6436 65.2016 15.6436 65.4883C15.6436 65.775 15.876 66.0074 16.1626 66.0074Z" fill="#FFA64D"/>
</g>
</g>
</g>
</svg>
