<svg width="203" height="176" viewBox="0 0 203 176" fill="none" xmlns="http://www.w3.org/2000/svg">
<path d="M29.9684 75.046C69.7357 52.038 133.988 52.038 173.503 75.046C213.018 98.054 212.799 135.35 173.041 158.358C133.282 181.366 69.0208 181.366 29.4975 158.358C-10.0258 135.35 -9.79462 98.0497 29.9684 75.046Z" fill="#F5F5F5"/>
<path d="M164.395 33.6368C164.159 33.4995 163.967 33.6068 163.967 33.8813V36.5149C163.975 36.663 164.018 36.8071 164.092 36.9353C164.167 37.0635 164.27 37.1723 164.395 37.2527L171.321 41.2632C171.556 41.3962 171.749 41.2889 171.749 41.0187V38.3851C171.741 38.2364 171.698 38.0917 171.623 37.9628C171.549 37.8339 171.445 37.7243 171.321 37.643L164.395 33.6368Z" fill="#FAFAFA"/>
<path d="M164.395 42.6961C164.159 42.5588 163.967 42.6703 163.967 42.9405V45.5742C163.975 45.7229 164.018 45.8675 164.092 45.9965C164.166 46.1254 164.27 46.2349 164.395 46.3162L171.312 50.3225C171.548 50.4597 171.74 50.3525 171.74 50.078V47.4443C171.732 47.2957 171.689 47.151 171.615 47.0221C171.54 46.8931 171.437 46.7836 171.312 46.7023L164.395 42.6961Z" fill="#FAFAFA"/>
<path d="M159.789 35.4597C159.554 35.3225 159.361 35.434 159.361 35.7042V38.3379C159.369 38.4866 159.412 38.6312 159.487 38.7601C159.561 38.8891 159.665 38.9986 159.789 39.0799L166.707 43.0733C166.942 43.2105 167.135 43.1033 167.135 42.8288V40.1951C167.128 40.0461 167.085 39.901 167.011 39.7718C166.936 39.6427 166.832 39.5334 166.707 39.4531L159.789 35.4597Z" fill="#FAFAFA"/>
<path d="M134.558 0.673395C134.322 0.536136 134.129 0.64337 134.129 0.917887V3.55154C134.136 3.70005 134.178 3.84478 134.253 3.9733C134.327 4.10181 134.432 4.21025 134.558 4.2893L141.488 8.29983C141.723 8.43709 141.916 8.32556 141.916 8.05534V5.42169C141.908 5.273 141.865 5.12833 141.79 4.99941C141.716 4.87049 141.612 4.76093 141.488 4.67963L134.558 0.673395Z" fill="#FAFAFA"/>
<path d="M134.558 9.71517C134.322 9.5822 134.13 9.68943 134.13 9.95966V12.5933C134.136 12.7423 134.179 12.8875 134.253 13.0166C134.328 13.1458 134.432 13.2551 134.558 13.3354L141.475 17.3373C141.711 17.4746 141.903 17.3673 141.903 17.0928V14.4592C141.895 14.3111 141.852 14.167 141.778 14.0388C141.703 13.9105 141.6 13.8018 141.475 13.7214L134.558 9.71517Z" fill="#FAFAFA"/>
<path d="M138.668 7.58355C138.433 7.44629 138.24 7.55353 138.24 7.82804V10.4617C138.248 10.6098 138.291 10.7539 138.366 10.8821C138.44 11.0103 138.544 11.1191 138.668 11.1995L145.594 15.1928C145.83 15.3258 146.022 15.2186 146.022 14.9483V12.3318C146.015 12.1831 145.972 12.0383 145.897 11.9093C145.823 11.7803 145.719 11.6708 145.594 11.5898L138.668 7.58355Z" fill="#FAFAFA"/>
<path d="M129.951 2.47933C129.716 2.34636 129.523 2.45359 129.523 2.72382V5.35747C129.532 5.50615 129.575 5.65082 129.649 5.77974C129.723 5.90866 129.827 6.01822 129.951 6.09952L136.878 10.1058C137.113 10.243 137.306 10.1358 137.306 9.86127V7.22762C137.297 7.07951 137.254 6.93545 137.18 6.80722C137.106 6.67898 137.002 6.57023 136.878 6.48985L129.951 2.47933Z" fill="#FAFAFA"/>
<path d="M29.5885 1.8316C29.8239 1.69434 30.0165 1.80157 30.0165 2.07609V4.70974C30.0084 4.85785 29.9654 5.00191 29.8909 5.13014C29.8165 5.25838 29.7129 5.36713 29.5885 5.44751L22.6624 9.45803C22.4269 9.591 22.2343 9.48377 22.2343 9.20925V6.57989C22.2411 6.43088 22.2835 6.28569 22.358 6.15655C22.4325 6.02741 22.5369 5.9181 22.6624 5.83784L29.5885 1.8316Z" fill="#FAFAFA"/>
<path d="M29.5885 10.8733C29.8239 10.736 30.0165 10.8476 30.0165 11.1178V13.7514C30.0084 13.9001 29.9654 14.0448 29.891 14.1737C29.8166 14.3026 29.713 14.4122 29.5885 14.4935L22.6624 18.4997C22.4269 18.637 22.2343 18.5255 22.2343 18.2552V15.6216C22.2411 15.4726 22.2835 15.3274 22.358 15.1983C22.4325 15.0691 22.5369 14.9598 22.6624 14.8795L29.5885 10.8733Z" fill="#FAFAFA"/>
<path d="M25.4742 8.75884C25.7097 8.62159 25.9023 8.72882 25.9023 9.00334V11.637C25.8941 11.7851 25.8511 11.9292 25.7767 12.0574C25.7023 12.1856 25.5986 12.2944 25.4742 12.3748L18.5481 16.3853C18.3127 16.5182 18.12 16.411 18.12 16.1365V13.5071C18.1282 13.3584 18.1712 13.2138 18.2456 13.0849C18.32 12.9559 18.4236 12.8464 18.5481 12.7651L25.4742 8.75884Z" fill="#FAFAFA"/>
<path d="M34.19 3.63746C34.4255 3.5002 34.6181 3.61172 34.6181 3.88195V6.5156C34.6113 6.66461 34.5689 6.8098 34.4944 6.93894C34.4199 7.06808 34.3155 7.17739 34.19 7.25766L27.2597 11.2639C27.0242 11.4011 26.8316 11.2896 26.8316 11.0194V8.38575C26.8398 8.23706 26.8828 8.0924 26.9571 7.96348C27.0315 7.83455 27.1352 7.725 27.2597 7.6437L34.19 3.63746Z" fill="#FAFAFA"/>
<path d="M17.7486 63.362C17.9841 63.2291 18.1767 63.3363 18.1767 63.6108V66.2402C18.1685 66.3889 18.1255 66.5335 18.0511 66.6624C17.9768 66.7914 17.8731 66.9009 17.7486 66.9822L10.8225 70.9885C10.5871 71.1257 10.3945 71.0185 10.3945 70.744V68.1103C10.4026 67.9622 10.4457 67.8182 10.5201 67.6899C10.5945 67.5617 10.6981 67.4529 10.8225 67.3726L17.7486 63.362Z" fill="#FAFAFA"/>
<path d="M17.7486 72.4083C17.9841 72.271 18.1767 72.3782 18.1767 72.6528V75.2864C18.1685 75.4345 18.1255 75.5786 18.0511 75.7068C17.9767 75.835 17.873 75.9438 17.7486 76.0242L10.8225 80.0347C10.5871 80.1677 10.3945 80.0604 10.3945 79.7859V77.1566C10.4026 77.0079 10.4457 76.8632 10.52 76.7343C10.5944 76.6054 10.698 76.4958 10.8225 76.4145L17.7486 72.4083Z" fill="#FAFAFA"/>
<path d="M13.6334 70.2722C13.8688 70.1392 14.0615 70.2465 14.0615 70.521V73.1503C14.0547 73.2993 14.0122 73.4445 13.9377 73.5737C13.8632 73.7028 13.7589 73.8121 13.6334 73.8924L6.70301 77.8986C6.46758 78.0359 6.27495 77.9286 6.27495 77.6541V75.0205C6.2831 74.8724 6.32614 74.7283 6.40054 74.6001C6.47494 74.4718 6.5786 74.3631 6.70301 74.2827L13.6334 70.2722Z" fill="#FAFAFA"/>
<path d="M93.8994 73.3133L121.951 57.0824C122.308 56.8749 122.713 56.7656 123.126 56.7656C123.538 56.7656 123.944 56.8749 124.301 57.0824L152.159 73.3047C152.337 73.4074 152.485 73.5553 152.587 73.7334C152.69 73.9114 152.744 74.1135 152.744 74.3191C152.744 74.5248 152.69 74.7268 152.587 74.9049C152.485 75.083 152.337 75.2308 152.159 75.3336L124.108 91.5644C123.751 91.7719 123.346 91.8812 122.933 91.8812C122.52 91.8812 122.115 91.7719 121.758 91.5644L93.8994 75.3421C93.7216 75.2394 93.574 75.0916 93.4713 74.9135C93.3686 74.7354 93.3146 74.5334 93.3146 74.3277C93.3146 74.122 93.3686 73.92 93.4713 73.7419C93.574 73.5639 93.7216 73.416 93.8994 73.3133Z" fill="#E6E6E6"/>
<path d="M135.795 97.119L163.85 80.8881C164.207 80.6806 164.612 80.5713 165.025 80.5713C165.438 80.5713 165.843 80.6806 166.2 80.8881L194.054 97.0932C194.232 97.1965 194.38 97.3448 194.482 97.5232C194.585 97.7016 194.639 97.9039 194.639 98.1098C194.639 98.3157 194.585 98.5179 194.482 98.6964C194.38 98.8748 194.232 99.023 194.054 99.1264L166.003 115.353C165.646 115.56 165.241 115.668 164.828 115.668C164.416 115.668 164.01 115.56 163.653 115.353L135.799 99.1307C135.626 99.0264 135.483 98.8791 135.383 98.7031C135.284 98.5271 135.231 98.3283 135.231 98.126C135.23 97.9237 135.282 97.7247 135.381 97.5483C135.479 97.3718 135.622 97.224 135.795 97.119Z" fill="#E6E6E6"/>
<path d="M126.441 139.729L154.492 123.498C154.849 123.291 155.255 123.182 155.667 123.182C156.08 123.182 156.485 123.291 156.842 123.498L184.701 139.721C184.879 139.824 185.026 139.972 185.129 140.151C185.231 140.329 185.285 140.531 185.285 140.737C185.285 140.943 185.231 141.145 185.129 141.324C185.026 141.502 184.879 141.651 184.701 141.754L156.645 157.985C156.288 158.192 155.883 158.302 155.47 158.302C155.058 158.302 154.652 158.192 154.295 157.985L126.441 141.762C126.262 141.66 126.114 141.512 126.01 141.333C125.907 141.155 125.853 140.952 125.853 140.746C125.853 140.539 125.907 140.337 126.01 140.158C126.114 139.98 126.262 139.832 126.441 139.729Z" fill="#E6E6E6"/>
<path d="M83.1735 153.022L111.229 136.791C111.585 136.584 111.99 136.476 112.402 136.476C112.814 136.476 113.218 136.584 113.575 136.791L141.433 153.013C141.611 153.117 141.759 153.265 141.861 153.443C141.964 153.622 142.018 153.824 142.018 154.03C142.018 154.236 141.964 154.438 141.861 154.617C141.759 154.795 141.611 154.943 141.433 155.047L113.382 171.273C113.025 171.481 112.62 171.59 112.207 171.59C111.794 171.59 111.389 171.481 111.032 171.273L83.1735 155.051C82.9968 154.947 82.8502 154.799 82.7484 154.621C82.6465 154.443 82.5929 154.242 82.5929 154.036C82.5929 153.831 82.6465 153.63 82.7484 153.452C82.8502 153.274 82.9968 153.126 83.1735 153.022Z" fill="#E6E6E6"/>
<path d="M16.2529 121.159C31.0083 112.619 54.8558 112.619 69.5171 121.159C84.1783 129.699 84.1013 143.536 69.3458 152.072C54.5904 160.608 30.7386 160.608 16.0773 152.072C1.41609 143.536 1.49743 129.695 16.2529 121.159Z" fill="#E6E6E6"/>
<path d="M95.2098 49.1084L109.43 40.8257L112.067 39.2944L122.974 32.9419L150.914 49.1084L150.841 74.5184L123.081 90.6806L95.137 74.5184L95.2098 49.1084Z" fill="#37474F"/>
<path d="M150.914 49.1084L122.974 32.9419L95.2098 49.1084L123.154 65.2749L150.914 49.1084Z" fill="#FFC081"/>
<path d="M123.154 65.2749L123.081 90.6806L150.841 74.5184L150.914 49.1084L123.154 65.2749Z" fill="#FFC081"/>
<path d="M95.2092 49.1084L95.1364 74.5184L123.081 90.6806L123.153 65.2749L95.2092 49.1084Z" fill="#FFC081"/>
<path opacity="0.2" d="M150.914 49.1084L122.974 32.9419L95.2098 49.1084L123.154 65.2749L150.914 49.1084Z" fill="white"/>
<path opacity="0.1" d="M95.2092 49.1084L95.1364 74.5184L123.081 90.6806L123.153 65.2749L95.2092 49.1084Z" fill="#4B4B4B"/>
<path opacity="0.3" d="M112.066 39.2944L106.66 42.4428L134.599 58.6093L140.006 55.4609L112.066 39.2944Z" fill="white"/>
<path opacity="0.3" d="M140.006 65.2749L134.599 68.4233V58.6093L140.006 55.4609V65.2749Z" fill="white"/>
<path opacity="0.3" d="M140.006 80.8064L134.599 83.9547V77.4736L140.006 74.3252V80.8064Z" fill="white"/>
<path opacity="0.4" d="M117.208 59.8576L123.047 56.4819L128.843 59.8576L123.008 63.2376L117.208 59.8576Z" fill="white"/>
<path d="M164.98 56.7305L175.887 63.0787L177.073 63.7693L192.74 72.8927L192.812 98.3027L164.868 114.469L137.108 98.3027L137.036 72.8927L164.98 56.7305Z" fill="#37474F"/>
<path d="M137.036 72.8927L164.98 56.7305L192.74 72.8927L164.796 89.0592L137.036 72.8927Z" fill="#FFC081"/>
<path d="M164.795 89.0591L164.868 114.469L137.108 98.3026L137.035 72.8926L164.795 89.0591Z" fill="#FFC081"/>
<path d="M192.74 72.8926L192.812 98.3026L164.868 114.469L164.796 89.0591L192.74 72.8926Z" fill="#FFC081"/>
<path opacity="0.4" d="M137.036 72.8927L164.98 56.7305L192.74 72.8927L164.796 89.0592L137.036 72.8927Z" fill="white"/>
<path opacity="0.3" d="M192.74 72.8926L192.812 98.3026L164.868 114.469L164.796 89.0591L192.74 72.8926Z" fill="white"/>
<path opacity="0.3" d="M175.887 63.0786L181.294 66.227L153.35 82.3935L147.943 79.2451L175.887 63.0786Z" fill="white"/>
<path opacity="0.3" d="M147.943 89.0591L153.35 92.2075V82.3935L147.943 79.2451V89.0591Z" fill="white"/>
<path opacity="0.3" d="M147.943 104.591L153.35 107.739V101.258L147.943 98.1099V104.591Z" fill="white"/>
<path d="M154.064 56.5719L162.458 51.6821L165.035 50.1808L172.137 46.0459L190.325 56.5719L190.278 73.1073L172.205 83.6333L154.017 73.1116L154.064 56.5719Z" fill="#FFA64D"/>
<path d="M190.325 56.5719L172.137 46.0459L154.064 56.5719L172.252 67.0937L190.325 56.5719Z" fill="#FFA64D"/>
<path d="M172.252 67.0935L172.205 83.6332L190.278 73.1072L190.325 56.5718L172.252 67.0935Z" fill="#FFA64D"/>
<path d="M154.064 56.5718L154.017 73.1114L172.206 83.6332L172.253 67.0935L154.064 56.5718Z" fill="#FFA64D"/>
<path opacity="0.4" d="M190.325 56.5719L172.137 46.0459L154.064 56.5719L172.252 67.0937L190.325 56.5719Z" fill="white"/>
<path opacity="0.1" d="M172.252 67.0935L172.205 83.6332L190.278 73.1072L190.325 56.5718L172.252 67.0935Z" fill="white"/>
<path opacity="0.3" d="M154.064 56.5718L154.017 73.1114L172.206 83.6332L172.253 67.0935L154.064 56.5718Z" fill="white"/>
<path opacity="0.3" d="M165.036 50.1807L161.517 52.231L179.706 62.7527L183.225 60.7024L165.036 50.1807Z" fill="white"/>
<path opacity="0.3" d="M183.225 67.0937L179.706 69.144V62.7529L183.225 60.7026V67.0937Z" fill="white"/>
<path opacity="0.3" d="M183.225 77.2037L179.706 79.254V75.0333L183.225 72.9873V77.2037Z" fill="white"/>
<path opacity="0.4" d="M156.796 56.4476L160.593 54.2515L164.368 56.4476L160.567 58.648L156.796 56.4476Z" fill="white"/>
<path d="M127.75 115.524L142.274 107.066L144.603 105.71H144.607L155.51 99.3579L183.454 115.524L183.381 140.93L155.621 157.097L127.677 140.93L127.75 115.524Z" fill="#FFA64D"/>
<path d="M183.454 115.524L155.51 99.3579L127.75 115.524L155.694 131.691L183.454 115.524Z" fill="#FFA64D"/>
<path d="M155.694 131.691L155.621 157.097L183.381 140.93L183.454 115.524L155.694 131.691Z" fill="#FFA64D"/>
<path d="M127.752 115.524L127.679 140.93L155.624 157.097L155.696 131.691L127.752 115.524Z" fill="#FFA64D"/>
<path opacity="0.2" d="M183.454 115.524L155.51 99.3579L127.75 115.524L155.694 131.691L183.454 115.524Z" fill="white"/>
<path opacity="0.1" d="M127.752 115.524L127.679 140.93L155.624 157.097L155.696 131.691L127.752 115.524Z" fill="#4B4B4B"/>
<path opacity="0.3" d="M144.605 105.71L139.203 108.859L167.142 125.025L172.549 121.877L144.605 105.71Z" fill="white"/>
<path opacity="0.3" d="M172.549 131.691L167.142 134.839V125.025L172.549 121.877V131.691Z" fill="white"/>
<path opacity="0.3" d="M172.549 147.222L167.142 150.371V143.89L172.549 140.741V147.222Z" fill="white"/>
<path opacity="0.4" d="M167.865 115.048L173.7 111.672L179.5 115.048L173.661 118.424L167.865 115.048Z" fill="white"/>
<path d="M112.354 112.655L123.261 119.003L125.594 120.363L140.119 128.817L140.191 154.227L112.247 170.393L84.4872 154.227L84.4144 128.817L112.354 112.655Z" fill="#FFA64D"/>
<path d="M84.414 128.817L112.354 112.655L140.118 128.817L112.174 144.983L84.414 128.817Z" fill="#FFA64D"/>
<path d="M112.173 144.983L112.246 170.393L84.486 154.227L84.4133 128.817L112.173 144.983Z" fill="#FFA64D"/>
<path d="M140.119 128.817L140.191 154.227L112.247 170.393L112.175 144.983L140.119 128.817Z" fill="#FFA64D"/>
<path opacity="0.2" d="M84.414 128.817L112.354 112.655L140.118 128.817L112.174 144.983L84.414 128.817Z" fill="white"/>
<path opacity="0.1" d="M140.119 128.817L140.191 154.227L112.247 170.393L112.175 144.983L140.119 128.817Z" fill="white"/>
<path opacity="0.3" d="M123.261 119.003L128.667 122.151L100.727 138.318L95.3207 135.169L123.261 119.003Z" fill="white"/>
<path opacity="0.3" d="M95.3211 144.983L100.728 148.132V138.318L95.3211 135.169V144.983Z" fill="white"/>
<path opacity="0.3" d="M95.3211 160.52L100.728 163.664V157.183L95.3211 154.034V160.52Z" fill="white"/>
<path d="M112.345 95.5835L120.996 100.623L123.637 102.159L134.373 108.409L134.429 128.568L112.255 141.398L90.2309 128.568L90.171 108.409L112.345 95.5835Z" fill="#37474F"/>
<path d="M90.171 108.409L112.345 95.5835L134.373 108.409L112.199 121.238L90.171 108.409Z" fill="#FFC081"/>
<path d="M112.199 121.238L112.255 141.397L90.2309 128.568L90.171 108.408L112.199 121.238Z" fill="#FFC081"/>
<path d="M134.373 108.408L134.429 128.568L112.255 141.397L112.199 121.238L134.373 108.408Z" fill="#FFC081"/>
<path opacity="0.4" d="M90.171 108.409L112.345 95.5835L134.373 108.409L112.199 121.238L90.171 108.409Z" fill="white"/>
<path opacity="0.1" d="M112.199 121.238L112.255 141.397L90.2309 128.568L90.171 108.408L112.199 121.238Z" fill="white"/>
<path opacity="0.3" d="M134.373 108.408L134.429 128.568L112.255 141.397L112.199 121.238L134.373 108.408Z" fill="white"/>
<path opacity="0.3" d="M120.997 100.623L125.29 103.119L103.116 115.945L98.827 113.448L120.997 100.623Z" fill="white"/>
<path opacity="0.3" d="M98.826 121.238L103.115 123.734V115.945L98.826 113.448V121.238Z" fill="white"/>
<path opacity="0.3" d="M98.826 133.561L103.115 136.057V130.914L98.826 128.418V133.561Z" fill="white"/>
<path opacity="0.4" d="M107.658 117.013L112.285 114.332L116.887 117.013L112.255 119.689L107.658 117.013Z" fill="white"/>
<path d="M74.1662 131.003C73.5844 131.56 72.894 131.992 72.1384 132.27C71.3827 132.548 70.5779 132.667 69.7742 132.62C68.1633 132.515 66.585 132.117 65.1169 131.445C63.6315 130.836 61.7694 129.12 60.1641 129.154C58.5895 129.142 57.0171 129.035 55.4554 128.832C55.3988 126.687 55.6248 124.544 56.1275 122.459L63.6229 122.261C65.6477 125.036 69.5816 127.348 72.5609 128.215C73.0191 128.346 73.4331 128.599 73.7588 128.947C74.0845 129.295 74.3097 129.726 74.4102 130.192C74.4078 130.208 74.4078 130.224 74.4102 130.239C74.3612 130.503 74.2792 130.76 74.1662 131.003Z" fill="#FFD9B4"/>
<path d="M60.1769 129.154C61.7821 129.12 63.6442 130.836 65.1296 131.445C66.5938 132.116 68.1676 132.514 69.7741 132.62C70.5778 132.667 71.3826 132.548 72.1383 132.27C72.894 131.992 73.5843 131.56 74.1661 131.003C74.2851 130.761 74.3728 130.504 74.4272 130.239C74.4248 130.224 74.4248 130.208 74.4272 130.192C74.4956 130.522 74.4956 130.862 74.4272 131.192C74.3728 131.456 74.2851 131.713 74.1661 131.955C73.5849 132.514 72.8946 132.946 72.1388 133.224C71.383 133.502 70.5779 133.621 69.7741 133.572C68.1635 133.469 66.5852 133.072 65.1168 132.401C63.6314 131.788 61.7693 130.076 60.164 130.106C58.6188 130.121 57.0743 130.033 55.5409 129.841C55.5024 129.506 55.481 129.167 55.4682 128.833C57.0298 129.035 58.6023 129.142 60.1769 129.154Z" fill="#263238"/>
<path d="M18.2095 138.012C18.2072 138.833 18.2889 139.652 18.4535 140.456C18.7138 141.886 19.5123 143.16 20.6837 144.017C21.7153 144.694 22.991 144.874 24.2281 144.96C25.3197 145.076 26.4234 144.962 27.4685 144.626C28.2597 144.339 28.93 143.792 29.3691 143.073C29.3691 143.073 29.3691 143.099 29.3691 143.116C29.2139 143.643 28.9345 144.125 28.5546 144.521C28.1747 144.918 27.7053 145.217 27.186 145.393C26.1395 145.73 25.0343 145.844 23.9413 145.728C22.7084 145.651 21.4328 145.462 20.3969 144.784C19.2249 143.925 18.4267 142.647 18.1667 141.216C18.0012 140.411 17.9208 139.592 17.927 138.771C17.9256 138.207 17.8086 137.65 17.5833 137.133C17.3579 136.617 17.0291 136.152 16.6171 135.768C16.4176 135.582 16.2276 135.386 16.0477 135.181C15.9222 135.034 15.8268 134.865 15.7673 134.681C15.7078 134.498 15.6852 134.305 15.701 134.113C15.701 133.958 15.7267 133.812 15.7438 133.684C16.0392 134.027 16.7369 134.85 16.9124 135.018C17.3201 135.402 17.6452 135.866 17.8682 136.381C18.0912 136.896 18.2073 137.45 18.2095 138.012Z" fill="#263238"/>
<path d="M24.3654 129.489C24.0976 131.166 24.3145 132.885 24.9903 134.443C25.6671 135.992 26.5482 137.443 27.6101 138.758C28.1284 139.381 28.587 140.052 28.9799 140.761C29.3637 141.467 29.5008 142.28 29.3694 143.073C28.9303 143.792 28.26 144.34 27.4688 144.626C26.4237 144.962 25.32 145.076 24.2284 144.96C22.9913 144.887 21.7156 144.694 20.684 144.017C19.5116 143.159 18.7131 141.883 18.4538 140.452C18.2892 139.648 18.2075 138.829 18.2098 138.007C18.2077 137.444 18.0908 136.887 17.8663 136.371C17.6418 135.855 17.3144 135.39 16.9042 135.005C16.7287 134.838 16.0481 134.014 15.7356 133.671C15.8984 132.447 16.3092 131.269 16.9427 130.209L24.3654 129.489Z" fill="#FFD9B4"/>
<path d="M51.8815 59.3711C51.8815 59.3711 66.774 85.7934 66.607 92.7335C66.4401 99.6737 64.8263 122.669 64.8263 122.669C60.948 124.938 55.3403 123.244 55.3403 123.244C54.8866 101.368 51.8173 100.596 53.2 92.5834C49.5186 86.1494 41.7407 75.8936 41.7407 75.8936C40.3195 88.1611 38.3161 98.151 37.3787 102.578C37.0404 104.162 36.5219 105.701 35.8334 107.167L25.0504 130.291C21.2577 132.277 16.4891 130.291 16.4891 130.291C19.4855 111.727 18.9248 112.336 24.9262 102.084C25.029 82.7479 25.9279 59.7271 25.9279 59.7271L51.8815 59.3711Z" fill="#37474F"/>
<path opacity="0.3" d="M47.2833 70.313C46.9195 73.1397 44.1456 75.2114 44.1456 75.2114C48.1181 80.1055 50.5623 85.7117 51.0332 89.0316C47.1078 82.9494 41.757 75.8934 41.757 75.8934C41.9625 73.2297 42.1851 72.033 42.1851 72.033C44.1413 72.226 46.7097 70.862 47.2833 70.313Z" fill="#4B4B4B"/>
<path d="M60.5793 29.8177C64.6202 29.5861 65.6776 31.7007 68.2288 34.0856C70.7801 36.4705 75.583 41.1029 75.583 41.1029C75.3983 42.7078 74.8132 44.2402 73.8818 45.5588C72.9504 46.8774 71.7026 47.9397 70.2536 48.6479L61.3584 42.0723L60.5793 29.8177Z" fill="#FFA64D"/>
<path opacity="0.4" d="M60.5793 29.8177C64.6202 29.5861 65.6776 31.7007 68.2288 34.0856C70.7801 36.4705 75.583 41.1029 75.583 41.1029C75.3983 42.7078 74.8132 44.2402 73.8818 45.5588C72.9504 46.8774 71.7026 47.9397 70.2536 48.6479L61.3584 42.0723L60.5793 29.8177Z" fill="#4B4B4B"/>
<path d="M28.4314 64.6299C33.748 66.4872 44.2399 68.8249 52.8997 62.6525C53.4212 62.2803 53.8129 61.7535 54.0195 61.1462C54.2261 60.539 54.2372 59.8821 54.0512 59.2682C53.7044 58.1359 53.6231 58.0972 54.873 53.0058C56.093 48.0302 63.52 40.3952 63.7854 37.7487C64.0508 35.1021 63.6955 30.5126 60.5792 29.8177C54.8003 28.5909 43.936 29.8177 43.936 29.8177L38.2085 32.1983C32.1899 39.5931 26.9289 52.1608 25.4007 59.2639C25.1646 60.3749 25.3425 61.5341 25.9008 62.5227C26.4592 63.5112 27.3593 64.2608 28.4314 64.6299Z" fill="#FFA64D"/>
<path opacity="0.3" d="M28.4314 64.6299C33.748 66.4872 44.2399 68.8249 52.8997 62.6525C53.4212 62.2803 53.8129 61.7535 54.0195 61.1462C54.2261 60.539 54.2372 59.8821 54.0512 59.2682C53.7044 58.1359 53.6231 58.0972 54.873 53.0058C56.093 48.0302 63.52 40.3952 63.7854 37.7487C64.0508 35.1021 63.6955 30.5126 60.5792 29.8177C54.8003 28.5909 43.936 29.8177 43.936 29.8177L38.2085 32.1983C32.1899 39.5931 26.9289 52.1608 25.4007 59.2639C25.1646 60.3749 25.3425 61.5341 25.9008 62.5227C26.4592 63.5112 27.3593 64.2608 28.4314 64.6299Z" fill="#4B4B4B"/>
<path d="M68.4257 20.2995C69.6543 19.4159 69.4916 18.0776 69.8041 16.5978C70.1166 15.118 69.6414 13.2178 68.8752 11.9139C68.0191 7.32856 51.8125 7.8733 51.6669 11.2361C50.9349 10.9059 50.4983 14.1572 50.4384 14.9593C50.2115 18.0304 49.6979 20.5826 50.661 23.4865C51.1618 24.9877 51.881 26.5791 53.3022 27.274L68.4257 20.2995Z" fill="#263238"/>
<path d="M48.919 27.2739C49.942 26.8921 52.168 26.7935 52.168 26.7935L50.2288 29.8174L48.919 27.2739Z" fill="#FFA64D"/>
<path opacity="0.7" d="M48.919 27.2739C49.942 26.8921 52.168 26.7935 52.168 26.7935L50.2288 29.8174L48.919 27.2739Z" fill="#4B4B4B"/>
<path d="M56.012 28.814C57.3435 29.3479 58.573 30.1083 59.6462 31.0616C59.7335 32.1473 59.9712 33.2156 60.3525 34.2357C59.4623 33.8662 58.6303 33.3692 57.8826 32.7602C57.3784 33.2786 56.7416 33.6481 56.0419 33.8282C55.8841 33.0076 55.7754 32.1783 55.7166 31.3447C55.6712 30.4904 55.771 29.6347 56.012 28.814Z" fill="#FFA64D"/>
<path opacity="0.4" d="M56.012 28.814C57.3435 29.3479 58.573 30.1083 59.6462 31.0616C59.7335 32.1473 59.9712 33.2156 60.3525 34.2357C59.4623 33.8662 58.6303 33.3692 57.8826 32.7602C57.3784 33.2786 56.7416 33.6481 56.0419 33.8282C55.8841 33.0076 55.7754 32.1783 55.7166 31.3447C55.6712 30.4904 55.771 29.6347 56.012 28.814Z" fill="#4B4B4B"/>
<path opacity="0.4" d="M59.124 33.6308C58.6807 33.3795 58.2584 33.0926 57.8612 32.7729C58.2367 32.4002 58.5684 31.9857 58.8501 31.5376C58.8097 32.2464 58.9026 32.9564 59.124 33.6308Z" fill="#4B4B4B"/>
<path d="M60.6992 26.7505C60.6992 26.7505 56.8252 30.2206 57.2105 31.6661C57.3603 32.2237 57.4673 33.3819 55.9263 33.9566C53.863 34.763 50.7424 32.7728 49.4711 30.997C49.1584 30.6762 48.9586 30.2622 48.9017 29.8174L52.4932 21.3975L60.6992 26.7505Z" fill="#FFA8A7"/>
<path d="M53.1781 25.7471C52.9074 24.4724 52.9264 23.153 53.2338 21.8867L60.6992 26.7637C60.6992 26.7637 58.4818 28.7497 57.5701 30.341C56.8766 30.1422 56.2222 29.8259 55.6352 29.4059C54.41 28.516 53.5393 27.2196 53.1781 25.7471Z" fill="#F28F8F"/>
<path d="M55.6484 34.0511C54.9207 33.4634 54.2487 31.3788 54.2487 31.3788C52.2117 30.3886 50.3981 28.9917 48.9192 27.2739L47.635 29.4958C48.1444 32.0694 51.9157 36.0628 51.9157 36.0628L52.9859 33.7079C53.3617 33.9919 53.8049 34.1729 54.2718 34.2331C54.7386 34.2933 55.2131 34.2305 55.6484 34.0511Z" fill="#FFA64D"/>
<path opacity="0.4" d="M55.6484 34.0511C54.9207 33.4634 54.2487 31.3788 54.2487 31.3788C52.2117 30.3886 50.3981 28.9917 48.9192 27.2739L47.635 29.4958C48.1444 32.0694 51.9157 36.0628 51.9157 36.0628L52.9859 33.7079C53.3617 33.9919 53.8049 34.1729 54.2718 34.2331C54.7386 34.2933 55.2131 34.2305 55.6484 34.0511Z" fill="#4B4B4B"/>
<path opacity="0.4" d="M54.8096 34.2442C54.4845 34.2852 54.1545 34.2588 53.84 34.1665C53.5256 34.0743 53.2334 33.9182 52.9817 33.708L53.6623 32.2153C53.8929 32.9672 54.2844 33.6596 54.8096 34.2442Z" fill="#4B4B4B"/>
<path d="M78.3526 21.4575L90.6809 28.6379L92.6414 29.7788L109.734 39.7301L109.815 68.4514L78.2285 86.7283L46.847 68.4514L46.7657 39.7301L78.3526 21.4575Z" fill="#FFA64D"/>
<path d="M46.765 39.7301L78.3519 21.4575L109.733 39.7301L78.1464 58.0069L46.765 39.7301Z" fill="#FFA64D"/>
<path d="M78.1472 58.0073L78.2285 86.7287L46.847 68.4518L46.7657 39.7305L78.1472 58.0073Z" fill="#FFA64D"/>
<path d="M109.734 39.7305L109.815 68.4518L78.2285 86.7287L78.1471 58.0073L109.734 39.7305Z" fill="#FFA64D"/>
<path opacity="0.4" d="M46.765 39.7301L78.3519 21.4575L109.733 39.7301L78.1464 58.0069L46.765 39.7301Z" fill="white"/>
<path opacity="0.1" d="M78.1472 58.0073L78.2285 86.7287L46.847 68.4518L46.7657 39.7305L78.1472 58.0073Z" fill="white"/>
<path opacity="0.3" d="M109.734 39.7305L109.815 68.4518L78.2285 86.7287L78.1471 58.0073L109.734 39.7305Z" fill="white"/>
<path opacity="0.3" d="M90.6812 28.6382L96.7939 32.194L65.207 50.4709L59.0942 46.9107L90.6812 28.6382Z" fill="white"/>
<path opacity="0.3" d="M59.0943 58.0071L65.207 61.563V50.4708L59.0943 46.9106V58.0071Z" fill="white"/>
<path opacity="0.3" d="M59.0943 75.5849L65.207 79.1451V71.7975L59.0943 68.2373V75.5849Z" fill="white"/>
<path opacity="0.4" d="M71.7087 51.9977L78.1682 48.2617L84.585 51.9977L78.1255 55.7337L71.7087 51.9977Z" fill="white"/>
<path d="M46.7909 49.2783L46.9493 58.3588C50.8019 62.7683 57.7194 71.6172 57.7194 71.6172C59.5601 70.592 61.8631 71.7759 62.8049 70.9094C62.9745 70.8041 63.1742 70.7584 63.3726 70.7794C63.571 70.8003 63.7568 70.8868 63.9007 71.0252C64.0288 71.1596 64.1177 71.3267 64.1577 71.5082C64.1977 71.6897 64.1873 71.8787 64.1276 72.0547C64.0001 72.4076 63.7471 72.7008 63.417 72.8782C63.0891 73.0535 62.7324 73.1683 62.364 73.2171C62.0261 73.2536 61.6922 73.3211 61.3666 73.4187C61.2035 73.4705 61.0536 73.5571 60.9272 73.6726C60.8008 73.7882 60.701 73.9298 60.6346 74.0878C61.1186 75.3292 61.7557 76.505 62.5309 77.5879L64.2432 78.5702C63.6053 79.0806 62.9247 79.6511 62.1028 79.6639C61.7446 79.6623 61.394 79.5596 61.0912 79.3677C60.7884 79.1758 60.5456 78.9024 60.3906 78.5787C59.8769 79.0077 58.9865 78.9777 58.3444 78.8147C57.7074 78.6244 57.1218 78.2914 56.6322 77.841C55.2713 76.6803 54.2764 75.1484 53.7684 73.4315L41.5386 65.3633C40.5422 64.7136 39.6993 63.8539 39.0686 62.8441C38.438 61.8344 38.0348 60.6989 37.8872 59.517L36.8641 51.0327L46.7909 49.2783Z" fill="#FFA8A7"/>
<path d="M43.936 29.8174C47.4205 35.7796 47.4205 45.7951 47.626 52.1219C42.7803 56.5399 36.2523 53.9363 36.2523 53.9363C33.9236 36.0541 33.5298 30.3493 43.936 29.8174Z" fill="#FFA64D"/>
<path opacity="0.4" d="M43.936 29.8174C47.4205 35.7796 47.4205 45.7951 47.626 52.1219C42.7803 56.5399 36.2523 53.9363 36.2523 53.9363C33.9236 36.0541 33.5298 30.3493 43.936 29.8174Z" fill="#4B4B4B"/>
<path opacity="0.2" d="M47.5404 49.2783C47.5703 50.2863 47.596 51.2514 47.626 52.1393C42.7803 56.5573 36.2523 53.9537 36.2523 53.9537C36.1281 52.9929 36.0083 52.0793 35.897 51.1871C37.5921 51.5817 43.4309 52.6026 47.5404 49.2783Z" fill="white"/>
<path d="M68.8409 12.9003C69.3868 17.0595 69.1134 21.2856 68.0361 25.3394C67.8297 26.2392 67.4983 27.1055 67.0516 27.913C66.598 28.7193 65.8883 29.3504 65.0354 29.7059C63.9823 30.1006 62.8094 29.9075 61.7008 29.7059C59.6717 29.3456 57.5913 28.9682 55.832 27.9001C54.0726 26.8321 52.6729 24.8976 52.8355 22.8473C52.3342 23.158 51.7631 23.3377 51.1745 23.3699C50.586 23.4021 49.9988 23.2858 49.4666 23.0317C48.9465 22.7455 48.5056 22.3342 48.1835 21.8348C47.8614 21.3353 47.6684 20.7635 47.6217 20.1707C47.5446 19.0212 48.2081 17.7387 49.3339 17.5114C49.6828 17.4607 50.0384 17.4857 50.3766 17.5849C50.7149 17.6841 51.028 17.855 51.2945 18.0861C51.8255 18.5506 52.2869 19.0895 52.6643 19.6861C52.8379 19.974 53.0697 20.2224 53.3449 20.4152C53.483 20.5119 53.6474 20.5638 53.8158 20.5638C53.9842 20.5638 54.1486 20.5119 54.2867 20.4152C54.4043 20.2741 54.4892 20.1085 54.5351 19.9305C54.581 19.7524 54.5868 19.5664 54.5521 19.3858L54.4365 16.7822C54.4279 16.5817 54.4776 16.383 54.5794 16.2102C54.6812 16.0374 54.8308 15.8979 55.0101 15.8085C55.5509 15.5224 55.9704 15.0502 56.1916 14.4788C56.3771 13.976 56.4867 13.4484 56.5169 12.9132C56.5189 12.8078 56.5468 12.7046 56.5979 12.6125C56.6491 12.5204 56.7221 12.4424 56.8105 12.3852C56.8988 12.328 56.9998 12.2934 57.1047 12.2845C57.2095 12.2756 57.3148 12.2927 57.4115 12.3341C60.8874 13.7625 65.2409 13.8268 68.8409 12.9003Z" fill="#FFA8A7"/>
<path d="M63.1184 19.2188L65.46 23.1649L62.669 23.6925L63.1184 19.2188Z" fill="#F28F8F"/>
<path d="M63.5374 26.9182L60.6736 26.1375C60.8438 25.8 61.1183 25.5266 61.4562 25.3581C61.794 25.1896 62.1772 25.135 62.5485 25.2024C63.2549 25.3612 63.6016 26.1976 63.5374 26.9182Z" fill="#F28F8F"/>
<path opacity="0.3" d="M63.5374 26.9182L60.6736 26.1375C60.8438 25.8 61.1183 25.5266 61.4562 25.3581C61.794 25.1896 62.1772 25.135 62.5485 25.2024C63.2549 25.3612 63.6016 26.1976 63.5374 26.9182Z" fill="#4B4B4B"/>
<path d="M65.9216 17.3654L67.9678 16.6834C67.8399 16.4877 67.6552 16.3359 67.4386 16.2485C67.222 16.1611 66.9839 16.1422 66.7563 16.1944C66.5215 16.2914 66.3187 16.4527 66.1711 16.6598C66.0235 16.8669 65.937 17.1114 65.9216 17.3654Z" fill="#263238"/>
<path d="M61.2305 16.9666L59.1929 16.2503C59.3251 16.0591 59.5122 15.9128 59.7293 15.8309C59.9465 15.7489 60.1834 15.7351 60.4086 15.7913C60.6413 15.8909 60.8416 16.0537 60.9869 16.2614C61.1321 16.4691 61.2165 16.7134 61.2305 16.9666Z" fill="#263238"/>
<path d="M61.3193 25.4297C61.6189 25.494 62.4323 25.8586 62.4922 26.6307L60.6729 26.1374C60.8074 25.8384 61.0339 25.5904 61.3193 25.4297Z" fill="#F28F8F"/>
<path d="M59.702 18.6826C59.5557 18.5859 59.4026 18.4999 59.2439 18.4252C59.4268 18.3459 59.6282 18.3199 59.8251 18.3502C60.022 18.3806 60.2064 18.4661 60.3569 18.5968C60.5065 18.7322 60.6153 18.9067 60.6713 19.1007C60.7272 19.2947 60.7281 19.5004 60.6737 19.6949C60.0523 19.2762 59.3162 19.0618 58.5676 19.0815C58.706 18.9222 58.8833 18.8017 59.0821 18.7317C59.281 18.6618 59.4946 18.6449 59.702 18.6826Z" fill="#263238"/>
<path d="M66.8885 18.9741C67.0333 18.8775 67.185 18.7915 67.3422 18.7167C67.1594 18.6374 66.9579 18.6114 66.761 18.6417C66.5641 18.6721 66.3798 18.7576 66.2292 18.8883C66.0801 19.0239 65.9717 19.1986 65.9165 19.3926C65.8613 19.5867 65.8614 19.7924 65.9168 19.9864C66.5371 19.5683 67.2712 19.3526 68.0186 19.3687C67.8799 19.2112 67.7031 19.0921 67.5051 19.023C67.3072 18.9539 67.0948 18.9371 66.8885 18.9741Z" fill="#263238"/>
<path d="M68.2979 10.3955L66.9024 6.72812C66.5757 5.86056 66.0251 5.09537 65.307 4.51062C64.5888 3.92587 63.7287 3.54249 62.8143 3.39959C59.3213 2.8763 55.259 3.21944 52.361 4.95233C51.6249 5.40307 51.014 6.03227 50.5846 6.78191C50.1552 7.53155 49.9211 8.37748 49.9039 9.24167C49.814 11.0712 50.0031 12.9038 50.4646 14.6762C51.813 13.9728 54.4542 13.0077 54.4542 13.0077L68.2979 10.3955Z" fill="#FFD9B4"/>
<path d="M54.454 12.9989C56.5944 14.0798 58.8674 15.1822 61.2774 15.1436C63.9271 15.1179 66.4656 13.7195 69.1024 13.964C69.7403 14.0241 73.015 15.1436 73.3146 13.5651C73.4088 13.0461 72.4799 12.2526 72.2872 12.1196C71.1058 11.2918 69.6589 10.8328 68.2977 10.3781C63.91 8.86401 58.6962 11.1288 54.454 12.9989Z" fill="#FFA64D"/>
<path opacity="0.3" d="M54.454 12.9989C56.5944 14.0798 58.8674 15.1822 61.2774 15.1436C63.9271 15.1179 66.4656 13.7195 69.1024 13.964C69.7403 14.0241 73.015 15.1436 73.3146 13.5651C73.4088 13.0461 72.4799 12.2526 72.2872 12.1196C71.1058 11.2918 69.6589 10.8328 68.2977 10.3781C63.91 8.86401 58.6962 11.1288 54.454 12.9989Z" fill="#4B4B4B"/>
<path opacity="0.2" d="M61.4783 14.1958C62.8738 13.9727 64.2222 13.518 65.5963 13.1835C66.9611 12.7893 68.3942 12.6914 69.7999 12.8961C70.464 13.0844 71.1427 13.2164 71.8289 13.2907C72.2811 13.3137 72.7294 13.1969 73.1131 12.9561C73.262 13.1299 73.3399 13.3535 73.3314 13.5824C73.0318 15.1609 69.7571 14.0413 69.1192 13.9813C66.4824 13.7368 63.9439 15.1351 61.2942 15.1609C59.6058 15.1082 57.9486 14.6912 56.4356 13.9384C58.0817 14.3662 59.7974 14.4537 61.4783 14.1958Z" fill="white"/>
<path d="M70.625 105.383C70.6619 105.384 70.6986 105.377 70.732 105.361C71.3646 105.045 71.8607 104.509 72.1278 103.853C72.3948 103.197 72.4145 102.466 72.1832 101.797C72.0932 101.567 71.9874 101.343 71.8664 101.128C71.6224 100.66 71.3912 100.218 71.5025 99.7893C71.6377 99.4434 71.8587 99.1378 72.1446 98.9014C72.5256 98.5197 72.9537 98.0864 72.9066 97.4731C72.8177 96.99 72.5463 96.5598 72.1489 96.2721C71.8923 96.0804 71.683 95.8324 71.5368 95.5472C71.4169 95.204 71.5111 94.7837 71.8407 94.2132L71.9477 94.0287C72.2458 93.606 72.4328 93.1147 72.4914 92.6004C72.4962 92.3976 72.4561 92.1962 72.3739 92.0108C72.2917 91.8254 72.1696 91.6605 72.0162 91.5281C71.909 91.4316 71.7808 91.3616 71.6418 91.3237C71.5029 91.2857 71.3569 91.2808 71.2157 91.3093C71.1824 91.3164 71.1509 91.3301 71.1229 91.3495C71.095 91.3689 71.0711 91.3937 71.0528 91.4225C71.0345 91.4512 71.0221 91.4833 71.0162 91.5169C71.0104 91.5505 71.0113 91.5849 71.0188 91.6181C71.0259 91.6509 71.0394 91.682 71.0586 91.7095C71.0777 91.737 71.1022 91.7604 71.1305 91.7784C71.1587 91.7963 71.1903 91.8085 71.2233 91.8141C71.2563 91.8197 71.2901 91.8187 71.3227 91.8112C71.3882 91.7991 71.4556 91.8026 71.5195 91.8212C71.5834 91.8398 71.6421 91.8731 71.6909 91.9184C71.7834 92.0024 71.8572 92.1051 71.9073 92.2196C71.9575 92.3342 71.9829 92.4581 71.982 92.5832C71.9215 93.0106 71.7584 93.4168 71.5068 93.7671L71.3955 93.9558C71.2169 94.2085 71.094 94.4964 71.035 94.8004C70.976 95.1043 70.9821 95.4174 71.0531 95.7187C71.2166 96.0872 71.4662 96.4109 71.7808 96.6624C72.089 96.9541 72.3544 97.2029 72.3801 97.5203C72.4057 97.8377 72.1104 98.2023 71.7636 98.5497C71.4097 98.8464 71.1421 99.2331 70.9889 99.6692C70.8305 100.291 71.1173 100.84 71.3955 101.385C71.5047 101.582 71.6019 101.785 71.6866 101.994C71.8709 102.542 71.8525 103.138 71.6348 103.673C71.4171 104.209 71.0147 104.648 70.5009 104.911C70.4489 104.936 70.4069 104.978 70.3817 105.03C70.3565 105.082 70.3495 105.141 70.3618 105.198C70.3742 105.254 70.4052 105.305 70.4499 105.341C70.4945 105.378 70.5501 105.399 70.6079 105.4L70.625 105.383Z" fill="#FFA64D"/>
<path d="M74.2508 101.063C74.2893 101.064 74.3273 101.055 74.3621 101.039C74.3969 101.023 74.4277 100.999 74.452 100.969C74.4932 100.916 74.5123 100.848 74.5051 100.781C74.4979 100.714 74.4651 100.652 74.4135 100.609C74.2846 100.49 74.1856 100.342 74.1246 100.177C74.0636 100.012 74.0423 99.8352 74.0625 99.6607C74.1098 99.2633 74.2333 98.8788 74.4263 98.5283L74.5205 98.3353C74.7083 97.975 74.852 97.5934 74.9486 97.1986C75.0198 96.9383 75.0309 96.6652 74.9812 96.3999C74.9315 96.1346 74.8223 95.8841 74.6618 95.6673C74.52 95.5037 74.3574 95.3595 74.1781 95.2384C73.9901 95.1258 73.8316 94.9699 73.7157 94.7837C73.5445 94.4363 73.7543 93.9859 74.0025 93.5484C74.0298 93.5207 74.0505 93.4871 74.0629 93.4502C74.0754 93.4133 74.0793 93.374 74.0745 93.3354C74.0696 93.2967 74.056 93.2597 74.0347 93.2271C74.0135 93.1944 73.9851 93.1671 73.9518 93.147C73.9185 93.127 73.881 93.1148 73.8423 93.1114C73.8036 93.1079 73.7646 93.1133 73.7282 93.1272C73.6919 93.1411 73.6592 93.163 73.6325 93.1914C73.6059 93.2198 73.5861 93.2539 73.5745 93.291C73.3733 93.6428 72.9538 94.3677 73.2663 95.0068C73.4185 95.2684 73.6333 95.488 73.8912 95.6459C74.0329 95.7428 74.1636 95.855 74.2808 95.9805C74.3902 96.1378 74.4631 96.3177 74.4942 96.507C74.5253 96.6962 74.5138 96.89 74.4606 97.0742C74.3669 97.4298 74.2303 97.7726 74.0539 98.0951L73.9597 98.2924C73.7317 98.7003 73.5862 99.1492 73.5317 99.6135C73.5046 99.8698 73.539 100.129 73.6321 100.369C73.7251 100.609 73.8742 100.824 74.0668 100.995C74.1171 101.04 74.183 101.065 74.2508 101.063Z" fill="#FFA64D"/>
<path d="M52.224 112.229C52.2872 112.226 52.3471 112.2 52.3923 112.156C52.4375 112.111 52.4649 112.052 52.4691 111.989C52.4734 111.925 52.4542 111.863 52.4153 111.813C52.3764 111.763 52.3205 111.729 52.2583 111.718C52.0139 111.653 51.7952 111.514 51.6314 111.321C51.4677 111.128 51.3668 110.889 51.3422 110.637C51.2961 110.134 51.3366 109.626 51.4621 109.136L51.5091 108.896C51.6783 108.248 51.6515 107.564 51.4321 106.931C51.2098 106.497 50.9111 106.106 50.5503 105.777C50.1222 105.348 49.7241 104.92 49.7327 104.405C49.792 103.978 49.9734 103.577 50.2549 103.251C50.6134 102.92 50.8312 102.464 50.8631 101.977C50.895 101.49 50.7385 101.009 50.4261 100.634C50.3399 100.496 50.2613 100.353 50.1907 100.206C49.9908 99.7489 49.9489 99.2384 50.0714 98.7551C50.1939 98.2718 50.4739 97.8433 50.867 97.5376C50.8945 97.5184 50.9179 97.4938 50.9359 97.4654C50.9538 97.437 50.9659 97.4053 50.9715 97.3722C50.9771 97.339 50.976 97.3051 50.9684 97.2724C50.9607 97.2397 50.9467 97.2088 50.927 97.1816C50.8867 97.1266 50.8265 97.0895 50.7594 97.0783C50.6922 97.067 50.6233 97.0826 50.5674 97.1215C50.0712 97.4925 49.716 98.0218 49.5603 98.6222C49.4047 99.2226 49.4579 99.8583 49.7113 100.424C49.7883 100.583 49.8782 100.733 49.9724 100.888C50.1578 101.141 50.281 101.435 50.332 101.745C50.2976 102.192 50.117 102.614 49.8183 102.946C49.473 103.352 49.2582 103.853 49.2019 104.383C49.2019 105.117 49.6856 105.632 50.1693 106.125C50.4835 106.41 50.7457 106.749 50.9441 107.124C51.1214 107.663 51.1363 108.242 50.9869 108.789L50.9441 109.024C50.804 109.573 50.762 110.142 50.82 110.706C50.857 111.069 51.0086 111.41 51.2526 111.681C51.4966 111.952 51.8204 112.138 52.1769 112.211L52.224 112.229Z" fill="#FFA64D"/>
<path d="M49.6758 110.328C49.7161 110.328 49.7558 110.318 49.7916 110.3C49.8273 110.281 49.8581 110.254 49.8813 110.221C49.9018 110.194 49.9166 110.164 49.9249 110.131C49.9332 110.099 49.9348 110.065 49.9296 110.031C49.9244 109.998 49.9125 109.966 49.8947 109.938C49.8768 109.909 49.8533 109.884 49.8257 109.865C49.6992 109.722 49.6093 109.549 49.5638 109.363C49.5184 109.177 49.5186 108.983 49.5645 108.797L49.5859 108.608C49.6877 108.158 49.6534 107.688 49.4875 107.257C49.2483 106.864 48.8941 106.554 48.473 106.369C48.1962 106.242 47.9463 106.063 47.7367 105.842C47.33 105.323 47.5184 104.555 47.8266 103.967C47.9593 103.723 48.1177 103.491 48.2846 103.242C48.5752 102.845 48.8153 102.413 48.9995 101.956C49.3034 101.124 49.1279 100.03 48.3146 99.6308C48.2538 99.605 48.1854 99.6036 48.1237 99.6269C48.0619 99.6502 48.0114 99.6965 47.9828 99.7561C47.9541 99.8157 47.9495 99.884 47.9698 99.947C47.9902 100.01 48.0339 100.063 48.092 100.094C48.6356 100.36 48.7384 101.175 48.5201 101.78C48.3487 102.193 48.1273 102.583 47.8608 102.942C47.6863 103.189 47.5248 103.446 47.3771 103.71C46.9876 104.418 46.7736 105.426 47.33 106.142C47.5788 106.425 47.8815 106.656 48.2204 106.82C48.5485 106.959 48.8284 107.191 49.0252 107.489C49.145 107.829 49.1628 108.198 49.0765 108.548V108.741C48.9952 109.462 49.1579 109.994 49.5474 110.281C49.5849 110.309 49.6294 110.325 49.6758 110.328Z" fill="#FFA64D"/>
<path d="M35.006 116.745C35.2519 116.743 35.4901 116.659 35.6823 116.505C36.1062 116.134 36.3739 115.616 36.4314 115.055C36.4528 114.896 36.4657 114.729 36.4785 114.566C36.4519 114.06 36.5869 113.558 36.8638 113.133C37.0979 112.913 37.3727 112.741 37.6728 112.627C38.1257 112.468 38.5157 112.167 38.7858 111.769C39.1282 111.178 38.9356 110.547 38.7515 109.934C38.593 109.538 38.5285 109.11 38.5632 108.685C38.7002 108.244 38.9565 107.849 39.3037 107.544C39.445 107.39 39.5863 107.24 39.7318 107.081C39.9012 106.868 40.0263 106.623 40.0999 106.361C40.1734 106.099 40.1938 105.824 40.1599 105.554C40.1363 105.405 40.0804 105.263 39.9961 105.138C39.9118 105.012 39.8011 104.907 39.6719 104.829C39.6441 104.803 39.611 104.784 39.5748 104.772C39.5386 104.76 39.5003 104.757 39.4626 104.762C39.4249 104.767 39.3888 104.78 39.3569 104.801C39.325 104.822 39.298 104.849 39.278 104.882C39.258 104.914 39.2453 104.95 39.2411 104.988C39.2368 105.026 39.2409 105.064 39.2532 105.1C39.2655 105.136 39.2856 105.169 39.3121 105.197C39.3386 105.224 39.3709 105.245 39.4065 105.258C39.4737 105.299 39.5309 105.355 39.5738 105.421C39.6168 105.487 39.6445 105.562 39.6547 105.64C39.692 106.04 39.5705 106.439 39.3166 106.751C39.1967 106.901 39.0683 107.043 38.9356 107.18C38.5214 107.552 38.2239 108.036 38.0795 108.574C38.024 109.08 38.093 109.593 38.2807 110.067C38.4476 110.62 38.5931 111.096 38.3577 111.495C38.1323 111.788 37.8255 112.007 37.4759 112.125C36.9835 112.277 36.5612 112.6 36.2843 113.035C36.0075 113.471 35.8942 113.99 35.9648 114.502C35.9648 114.656 35.9648 114.815 35.922 114.969C35.8807 115.393 35.6839 115.785 35.3698 116.072C35.3079 116.123 35.2358 116.161 35.1584 116.182C35.0809 116.204 34.9998 116.208 34.9203 116.196C34.8529 116.187 34.7849 116.205 34.7305 116.246C34.6762 116.287 34.6398 116.348 34.6293 116.415C34.6194 116.482 34.6364 116.55 34.6764 116.605C34.7165 116.659 34.7765 116.696 34.8433 116.706C34.8964 116.724 34.9508 116.737 35.006 116.745Z" fill="#FFA64D"/>
<path d="M38.251 115.403C38.2929 115.403 38.3341 115.392 38.3709 115.372C38.4303 115.34 38.4744 115.285 38.4936 115.22C38.5129 115.155 38.5057 115.085 38.4736 115.025C38.4036 114.845 38.3821 114.649 38.4115 114.458C38.4408 114.267 38.5198 114.086 38.6406 113.936C38.8611 113.652 39.1188 113.399 39.4068 113.185L39.6294 112.992C40.0563 112.673 40.3771 112.232 40.5497 111.727C40.6538 111.178 40.5942 110.611 40.3785 110.097L40.3357 109.968C40.1714 109.575 40.087 109.154 40.0874 108.728C40.0865 108.535 40.1487 108.346 40.2646 108.191C40.3806 108.036 40.5438 107.924 40.7295 107.87C40.7628 107.867 40.795 107.856 40.8242 107.84C40.8535 107.824 40.8792 107.802 40.8999 107.776C40.9206 107.749 40.9359 107.719 40.9449 107.687C40.9538 107.654 40.9563 107.621 40.9521 107.587C40.9484 107.554 40.9381 107.522 40.9219 107.492C40.9056 107.463 40.8837 107.437 40.8574 107.417C40.8311 107.396 40.801 107.381 40.7688 107.372C40.7365 107.363 40.7028 107.36 40.6696 107.364C40.366 107.43 40.0931 107.596 39.8945 107.836C39.6959 108.075 39.583 108.374 39.5738 108.685C39.57 109.182 39.6676 109.674 39.8606 110.131L39.9034 110.26C40.0819 110.679 40.1383 111.14 40.066 111.589C39.9151 111.993 39.6522 112.346 39.3084 112.606L39.0858 112.786C38.7632 113.032 38.4752 113.321 38.2296 113.644C38.0528 113.871 37.941 114.141 37.9063 114.427C37.8716 114.713 37.9153 115.003 38.0327 115.265C38.0538 115.305 38.0851 115.339 38.1235 115.363C38.1618 115.387 38.2058 115.401 38.251 115.403Z" fill="#FFA64D"/>
<path d="M16.2743 115.459C16.3375 115.456 16.3974 115.43 16.4427 115.386C16.4879 115.341 16.5152 115.282 16.5195 115.219C16.5237 115.156 16.5046 115.093 16.4657 115.043C16.4267 114.993 16.3708 114.959 16.3086 114.948C16.1771 114.925 16.0517 114.876 15.9404 114.802C15.8292 114.728 15.7344 114.632 15.6622 114.519C15.4163 114.155 15.324 113.708 15.4054 113.275C15.6109 112.571 15.9773 111.925 16.4755 111.388L16.6168 111.212C17.1519 110.522 17.6955 109.694 17.6613 108.767C17.6194 108.29 17.5024 107.822 17.3145 107.382C17.092 106.781 16.8865 106.215 17.1005 105.705C17.3327 105.301 17.678 104.974 18.0936 104.765C18.6001 104.531 19.0166 104.137 19.2799 103.644C19.5433 103.151 19.6393 102.585 19.5533 102.033C19.5129 101.514 19.6214 100.995 19.8658 100.536C19.9405 100.428 20.037 100.336 20.149 100.268C20.2611 100.199 20.3863 100.154 20.5165 100.137C20.5919 100.124 20.6693 100.128 20.7433 100.148C20.8172 100.168 20.8859 100.204 20.9445 100.253C20.9926 100.3 21.0571 100.326 21.1243 100.326C21.1916 100.326 21.2561 100.3 21.3041 100.253C21.3515 100.204 21.3779 100.139 21.3779 100.071C21.3779 100.003 21.3515 99.9371 21.3041 99.8883C21.1907 99.7898 21.0574 99.717 20.9134 99.6749C20.7693 99.6327 20.6179 99.6221 20.4694 99.6438C20.2644 99.6701 20.0671 99.7391 19.8902 99.8462C19.7133 99.9533 19.5607 100.096 19.442 100.266C19.1371 100.807 18.9972 101.426 19.0396 102.046C19.1287 102.513 19.0559 102.996 18.8332 103.416C18.6106 103.835 18.2514 104.166 17.8154 104.353C17.3092 104.614 16.8952 105.024 16.6297 105.529C16.3343 106.224 16.5868 106.914 16.8308 107.579C16.999 107.969 17.1058 108.383 17.1476 108.806C17.1776 109.565 16.7195 110.268 16.2101 110.916L16.0774 111.092C15.5228 111.688 15.1191 112.409 14.9003 113.194C14.8464 113.478 14.8493 113.769 14.9088 114.052C14.9684 114.335 15.0833 114.603 15.247 114.841C15.3601 115.008 15.5069 115.15 15.6779 115.257C15.849 115.364 16.0405 115.434 16.2401 115.463L16.2743 115.459Z" fill="#FFA64D"/>
<path d="M14.4385 112.366C14.4669 112.37 14.4957 112.37 14.5241 112.366C14.5881 112.343 14.6407 112.296 14.6703 112.235C14.7 112.174 14.7044 112.104 14.6825 112.04C14.5327 111.611 14.8709 111.105 15.0849 110.851C15.1577 110.761 15.2347 110.671 15.316 110.586C15.6317 110.276 15.8783 109.904 16.0395 109.492C16.2749 108.763 15.9967 108.055 15.727 107.377C15.4713 106.875 15.3489 106.315 15.3717 105.751C15.5131 105.191 15.8314 104.692 16.2792 104.327C16.3776 104.233 16.4804 104.143 16.5831 104.053C16.9852 103.726 17.3384 103.343 17.6319 102.916C17.8433 102.615 17.9624 102.259 17.9746 101.891C17.9867 101.523 17.8914 101.159 17.7004 100.844C17.6805 100.817 17.6553 100.794 17.6265 100.776C17.5976 100.759 17.5655 100.747 17.5321 100.742C17.4987 100.737 17.4646 100.738 17.4318 100.746C17.399 100.754 17.368 100.769 17.3408 100.789C17.2869 100.829 17.2508 100.889 17.2404 100.955C17.23 101.022 17.2461 101.09 17.2851 101.145C17.4157 101.376 17.4771 101.64 17.4619 101.906C17.4467 102.171 17.3556 102.427 17.1995 102.642C16.931 103.027 16.6096 103.372 16.2449 103.667L15.9325 103.954C15.3956 104.391 15.0191 104.995 14.8623 105.67C14.8238 106.323 14.9582 106.974 15.2518 107.557C15.5001 108.179 15.7313 108.771 15.5515 109.324C15.4099 109.668 15.1985 109.977 14.9308 110.234C14.8495 110.328 14.7681 110.418 14.6911 110.513C14.2031 111.1 14.0276 111.696 14.1988 112.198C14.2165 112.248 14.2491 112.29 14.2921 112.32C14.335 112.35 14.3862 112.366 14.4385 112.366Z" fill="#FFA64D"/>
<path d="M23.9576 64.3767C24.0177 64.3776 24.0763 64.3569 24.1226 64.3184C24.1689 64.2798 24.1999 64.226 24.2101 64.1665C24.2163 64.1333 24.2159 64.0992 24.2089 64.0661C24.2019 64.033 24.1885 64.0016 24.1695 63.9738C24.1504 63.9459 24.126 63.922 24.0977 63.9036C24.0694 63.8852 24.0378 63.8725 24.0046 63.8663C23.3711 63.7548 23.003 63.0084 23.0201 62.3522C23.0711 61.7577 23.2261 61.177 23.4781 60.6364C23.5338 60.4949 23.5851 60.3533 23.6365 60.2075C23.8762 59.5641 24.1502 58.6076 23.7949 57.7497C23.6288 57.4025 23.4187 57.0781 23.1699 56.7846C22.8061 56.3214 22.4936 55.9267 22.5663 55.4549C22.6391 54.9831 23.1442 54.6571 23.6665 54.3397C24.1887 54.0223 24.7794 53.6748 25.0063 53.0529C25.1448 52.5195 25.1088 51.9557 24.9036 51.4444C24.8017 51.148 24.7398 50.8393 24.7195 50.5265C24.7142 50.2304 24.7922 49.9388 24.9445 49.6851C25.0967 49.4313 25.3171 49.2256 25.5806 49.0914C25.844 48.9571 26.1397 48.8999 26.4341 48.9261C26.7284 48.9523 27.0095 49.061 27.2451 49.2397C27.271 49.2612 27.3011 49.2772 27.3334 49.2865C27.3657 49.2959 27.3997 49.2984 27.433 49.294C27.4664 49.2895 27.4985 49.2782 27.5273 49.2608C27.5561 49.2433 27.581 49.22 27.6004 49.1925C27.6417 49.1384 27.66 49.0701 27.6511 49.0026C27.6423 48.935 27.6071 48.8738 27.5533 48.8322C27.2406 48.5934 26.867 48.4482 26.4754 48.4131C26.0839 48.378 25.6904 48.4546 25.3405 48.634C24.9905 48.8133 24.6983 49.0882 24.4975 49.4269C24.2967 49.7655 24.1956 50.1541 24.2058 50.5479C24.2283 50.9057 24.2974 51.259 24.4113 51.5988C24.5795 52.0061 24.6183 52.4554 24.5226 52.8856C24.3642 53.3145 23.8976 53.6105 23.4053 53.9065C22.8018 54.2668 22.1768 54.6442 22.0612 55.3777C21.9456 56.1112 22.3651 56.5916 22.7632 57.0934C22.9854 57.3537 23.1725 57.6422 23.3197 57.9513C23.6108 58.6419 23.3668 59.4697 23.1571 60.0316L23.003 60.4606C22.7237 61.06 22.5554 61.7053 22.5064 62.365C22.5064 63.2229 22.9773 64.2309 23.9147 64.3939L23.9576 64.3767Z" fill="#FFA64D"/>
<path d="M21.6249 62.0907C21.6547 62.0947 21.685 62.0947 21.7148 62.0907C21.7466 62.0792 21.7758 62.0615 21.8008 62.0386C21.8257 62.0158 21.846 61.9883 21.8603 61.9576C21.8746 61.9269 21.8827 61.8937 21.8842 61.8598C21.8857 61.826 21.8805 61.7922 21.8689 61.7604C21.702 61.31 21.9417 60.821 22.1942 60.302C22.513 59.8003 22.663 59.2096 22.6223 58.6163C22.5092 58.1574 22.274 57.7379 21.9417 57.4024C21.8066 57.2425 21.6809 57.0749 21.565 56.9006C21.3294 56.5039 21.2211 56.0444 21.2548 55.584C21.2885 55.1237 21.4625 54.6849 21.7533 54.327C21.952 54.113 22.1698 53.9177 22.404 53.7436C22.6807 53.5382 22.9347 53.3039 23.1617 53.0445C23.4944 52.6223 23.6897 52.1079 23.7211 51.5709C23.7525 51.0338 23.6185 50.5001 23.3372 50.0419C23.2971 49.9929 23.2404 49.9605 23.1779 49.9508C23.1154 49.9411 23.0516 49.9548 22.9986 49.9893C22.9456 50.0239 22.9072 50.0767 22.8906 50.1379C22.8741 50.199 22.8807 50.2641 22.9091 50.3207C23.1316 50.6874 23.2373 51.1133 23.2121 51.5417C23.1869 51.9701 23.0319 52.3806 22.7678 52.7185C22.5653 52.9495 22.3385 53.158 22.0915 53.3404C21.8317 53.5169 21.5894 53.718 21.3681 53.9409C21.0017 54.381 20.7821 54.925 20.7398 55.4965C20.6976 56.0681 20.835 56.6385 21.1326 57.1279C21.2631 57.3215 21.4061 57.5064 21.5607 57.6812C21.8308 57.9514 22.0269 58.2867 22.13 58.6549C22.1467 59.1421 22.0137 59.6227 21.749 60.0318C21.458 60.6237 21.1583 61.2328 21.398 61.8891C21.4096 61.9424 21.4378 61.9907 21.4786 62.027C21.5194 62.0632 21.5706 62.0855 21.6249 62.0907Z" fill="#FFA64D"/>
<path d="M85.548 20.8355C85.6053 20.834 85.6607 20.8145 85.7064 20.7797C85.7595 20.7375 85.7939 20.6759 85.8019 20.6084C85.8099 20.5409 85.791 20.473 85.7492 20.4194L84.4393 18.768C84.2809 18.5664 83.9128 18.0946 83.3948 18.189C83.1123 18.2664 82.8721 18.4531 82.727 18.708C82.6467 18.8361 82.5402 18.9458 82.4145 19.0297C82.3147 19.0603 82.2089 19.0666 82.1062 19.0479C82.0034 19.0292 81.9066 18.9862 81.8238 18.9225C81.7097 18.8457 81.601 18.7611 81.4985 18.6694C81.3811 18.5638 81.2566 18.4664 81.1261 18.3777C80.865 18.2081 80.568 18.1022 80.2587 18.0684C79.9495 18.0346 79.6366 18.0739 79.3453 18.1832C79.0539 18.2925 78.7922 18.4686 78.5811 18.6976C78.37 18.9265 78.2153 19.2019 78.1296 19.5015C78.1166 19.565 78.128 19.6311 78.1615 19.6865C78.195 19.742 78.2482 19.7827 78.3104 19.8006C78.3725 19.8184 78.4392 19.8121 78.4969 19.783C78.5547 19.7538 78.5993 19.7038 78.6219 19.6431C78.6825 19.4183 78.7952 19.211 78.9508 19.038C79.1064 18.8651 79.3005 18.7314 79.5175 18.6478C79.7344 18.5642 79.9679 18.5331 80.1991 18.5569C80.4302 18.5808 80.6525 18.659 80.8478 18.7852C80.9627 18.861 81.0714 18.9456 81.1731 19.0383C81.2937 19.145 81.4209 19.2439 81.5541 19.3342C81.7088 19.4496 81.8909 19.5226 82.0823 19.5459C82.2737 19.5692 82.4679 19.5421 82.6457 19.4672C82.8468 19.354 83.0161 19.1917 83.138 18.9954C83.2578 18.8324 83.3648 18.6951 83.489 18.6737C83.6859 18.6351 83.917 18.8796 84.0455 19.064L85.3511 20.7197C85.3722 20.7534 85.4012 20.7815 85.4355 20.8016C85.4697 20.8218 85.5083 20.8334 85.548 20.8355Z" fill="#FFA64D"/>
<path d="M85.4631 18.8242C85.5239 18.8233 85.5826 18.8022 85.6301 18.7642C85.6813 18.7201 85.7132 18.6576 85.7188 18.5902C85.7244 18.5228 85.7033 18.4558 85.66 18.4039C85.3529 18.0015 84.9863 17.6486 84.5728 17.3573C84.3423 17.1984 84.0789 17.0939 83.8024 17.0516C83.5259 17.0092 83.2434 17.0302 82.9761 17.1128C82.8423 17.1658 82.7134 17.2304 82.5908 17.3058C82.4878 17.3664 82.3805 17.4195 82.2698 17.4645C82.0989 17.5203 81.9153 17.524 81.7423 17.4751C81.5693 17.4263 81.4147 17.327 81.2981 17.19C81.2547 17.138 81.1926 17.1052 81.1253 17.0988C81.058 17.0924 80.9909 17.1128 80.9385 17.1557C80.9123 17.1769 80.8906 17.2031 80.8747 17.2328C80.8587 17.2625 80.8489 17.295 80.8457 17.3286C80.8425 17.3622 80.846 17.396 80.8561 17.4282C80.8661 17.4604 80.8825 17.4902 80.9042 17.516C81.0878 17.7338 81.3326 17.8912 81.6067 17.9677C81.8807 18.0443 82.1715 18.0363 82.441 17.9449C82.5796 17.8887 82.714 17.8227 82.8434 17.7476C82.9416 17.6863 83.0446 17.6332 83.1516 17.5889C83.3454 17.5338 83.549 17.523 83.7475 17.5571C83.9461 17.5913 84.1344 17.6695 84.2988 17.7862C84.667 18.05 84.9932 18.3681 85.2662 18.7299C85.2901 18.7591 85.3202 18.7827 85.3542 18.799C85.3882 18.8154 85.4254 18.824 85.4631 18.8242Z" fill="#FFA64D"/>
<path d="M32.6404 34.5574C32.6616 34.5616 32.6834 34.5616 32.7046 34.5574C32.737 34.5494 32.7675 34.535 32.7943 34.5151C32.8212 34.4952 32.8438 34.4702 32.8609 34.4415C32.878 34.4127 32.8893 34.3809 32.8941 34.3478C32.8988 34.3147 32.897 34.281 32.8886 34.2486C32.59 33.0569 32.744 31.7965 33.3207 30.7122C33.8973 29.6279 34.8555 28.797 36.0093 28.3808C36.0728 28.3566 36.1244 28.3086 36.1532 28.2469C36.1819 28.1853 36.1856 28.1148 36.1633 28.0505C36.1401 27.9872 36.093 27.9355 36.0322 27.9066C35.9714 27.8777 35.9016 27.8739 35.838 27.8961C34.5696 28.3584 33.5173 29.2757 32.8847 30.4705C32.2522 31.6653 32.0843 33.0527 32.4135 34.3644C32.4266 34.4162 32.4555 34.4626 32.4962 34.4972C32.5368 34.5318 32.5872 34.5528 32.6404 34.5574Z" fill="#FFA64D"/>
<path d="M31.3806 32.3571H31.4277C31.4942 32.3436 31.5528 32.3047 31.5911 32.2487C31.6295 32.1926 31.6446 32.1239 31.6332 32.0569C31.5361 31.4975 31.5848 30.9224 31.7745 30.3874C31.9643 29.8524 32.2886 29.3755 32.7162 29.0029C32.7421 28.9814 32.7634 28.9549 32.779 28.9251C32.7945 28.8952 32.804 28.8626 32.8067 28.829C32.8095 28.7955 32.8056 28.7617 32.7952 28.7297C32.7848 28.6977 32.7681 28.668 32.7462 28.6426C32.7022 28.5912 32.6398 28.5592 32.5725 28.5536C32.5052 28.548 32.4384 28.5692 32.3866 28.6125C31.8861 29.0404 31.5064 29.5924 31.2855 30.2134C31.0647 30.8344 31.0104 31.5026 31.1281 32.1512C31.1407 32.2091 31.1725 32.261 31.2184 32.2985C31.2643 32.3359 31.3215 32.3565 31.3806 32.3571Z" fill="#FFA64D"/>
<path d="M112.548 44.1613C112.605 44.162 112.66 44.1433 112.705 44.1082C112.75 44.0732 112.782 44.0238 112.796 43.9683C113.237 42.1013 113.208 40.1538 112.712 38.3008C112.216 36.4478 111.268 34.7474 109.954 33.3522C109.93 33.3283 109.902 33.3094 109.871 33.2964C109.84 33.2835 109.807 33.2769 109.774 33.2769C109.74 33.2769 109.707 33.2835 109.676 33.2964C109.645 33.3094 109.617 33.3283 109.594 33.3522C109.57 33.3761 109.551 33.4045 109.538 33.4358C109.525 33.4671 109.518 33.5006 109.518 33.5345C109.518 33.5684 109.525 33.6019 109.538 33.6332C109.551 33.6645 109.57 33.6929 109.594 33.7168C110.851 35.051 111.757 36.6775 112.231 38.4498C112.704 40.222 112.731 42.0845 112.308 43.8696C112.292 43.9361 112.303 44.0061 112.338 44.0646C112.374 44.1231 112.43 44.1655 112.496 44.1828L112.548 44.1613Z" fill="#FFA64D"/>
<path d="M114.721 40.451C114.754 40.4499 114.787 40.4421 114.818 40.4281C114.848 40.414 114.875 40.3941 114.898 40.3693C114.921 40.3445 114.938 40.3155 114.95 40.2838C114.961 40.2522 114.966 40.2186 114.965 40.185C114.876 37.7983 114.223 35.4668 113.06 33.3821C113.049 33.3443 113.03 33.3094 113.003 33.2802C112.977 33.251 112.944 33.2283 112.908 33.2137C112.871 33.1991 112.832 33.1931 112.793 33.1961C112.754 33.1991 112.716 33.211 112.682 33.231C112.648 33.251 112.62 33.2785 112.598 33.3114C112.576 33.3442 112.563 33.3816 112.558 33.4207C112.553 33.4597 112.557 33.4993 112.57 33.5365C112.583 33.5737 112.604 33.6075 112.632 33.6352C113.756 35.6469 114.387 37.8979 114.472 40.2022C114.474 40.2675 114.501 40.3295 114.547 40.3757C114.593 40.4219 114.655 40.4488 114.721 40.451Z" fill="#FFA64D"/>
<path d="M110.564 75.4518C110.611 75.453 110.657 75.4411 110.697 75.4175C112.083 74.5899 113.158 73.3269 113.755 71.8247C114.352 70.3224 114.437 68.6648 113.997 67.109C113.989 67.0755 113.974 67.044 113.953 67.0162C113.933 66.9885 113.907 66.9651 113.877 66.9474C113.848 66.9297 113.815 66.918 113.781 66.9129C113.747 66.9079 113.712 66.9097 113.678 66.9181C113.645 66.9266 113.614 66.9416 113.586 66.9622C113.558 66.9828 113.535 67.0087 113.517 67.0384C113.499 67.0681 113.488 67.1009 113.483 67.1351C113.478 67.1693 113.48 67.2042 113.488 67.2377C113.895 68.6837 113.814 70.2237 113.259 71.6194C112.705 73.0151 111.706 74.1887 110.419 74.9585C110.389 74.9753 110.364 74.9979 110.343 75.0248C110.323 75.0517 110.308 75.0825 110.3 75.1153C110.291 75.1481 110.289 75.1823 110.295 75.2157C110.3 75.2492 110.311 75.2813 110.329 75.3102C110.35 75.3541 110.384 75.3907 110.426 75.4159C110.467 75.441 110.516 75.4534 110.564 75.4518Z" fill="#FFA64D"/>
<path d="M114.182 74.1005C114.215 74.1003 114.248 74.0933 114.279 74.0801C114.31 74.0668 114.338 74.0475 114.361 74.0233C114.983 73.3965 115.461 72.6419 115.764 71.8118C116.066 70.9816 116.185 70.0956 116.112 69.215C116.1 69.1518 116.066 69.0953 116.015 69.0566C115.963 69.0178 115.9 68.9996 115.836 69.0055C115.772 69.0114 115.713 69.041 115.67 69.0885C115.626 69.136 115.603 69.1979 115.603 69.2621C115.671 70.0699 115.563 70.8828 115.286 71.6444C115.008 72.4059 114.569 73.0977 113.997 73.6716C113.965 73.7081 113.943 73.7533 113.935 73.8017C113.927 73.8502 113.933 73.8998 113.953 73.9449C113.972 73.99 114.004 74.0286 114.045 74.0562C114.085 74.0837 114.133 74.0991 114.182 74.1005Z" fill="#FFA64D"/>
</svg>
