<svg xmlns="http://www.w3.org/2000/svg" width="44" height="44" viewBox="0 0 44 44" fill="none">
  <path d="M11.099 6.84162L29.2793 14.6324L22 17.7509L3.92425 10.0041C4.33125 9.58887 4.829 9.25337 5.3955 9.03612L11.099 6.84162ZM14.7785 5.42812L19.041 3.78912C20.9466 3.05654 23.0561 3.05654 24.9618 3.78912L38.6073 9.03612C39.171 9.25612 39.6688 9.58612 40.0757 10.0041L32.7717 13.1336L14.7785 5.42812ZM41.2335 12.5011L23.375 20.1544V40.6419C23.9158 40.5502 24.4447 40.4054 24.9618 40.2074L38.6073 34.9576C39.3852 34.6581 40.0541 34.1299 40.5259 33.4426C40.9976 32.7553 41.2501 31.9412 41.25 31.1076V12.8861C41.25 12.7578 41.2436 12.6295 41.2308 12.5011M20.625 40.6419V20.1544L2.76925 12.5011C2.75834 12.6292 2.75192 12.7576 2.75 12.8861V31.1076C2.75011 31.9416 3.00298 32.7559 3.47526 33.4432C3.94754 34.1305 4.61705 34.6585 5.3955 34.9576L19.0382 40.2074C19.5553 40.4054 20.0842 40.5502 20.625 40.6419Z" fill="black"/>
</svg>