<svg width="205" height="184" viewBox="0 0 205 184" fill="none" xmlns="http://www.w3.org/2000/svg">
<g id="Group">
<path id="Vector" d="M92.2716 15.0065C92.2716 15.0065 84.5604 54.7315 40.2203 56.3009C-4.1199 57.8704 -16.2534 121.826 28.7589 133.706C73.7713 145.585 51.5965 176.329 81.2242 182.556C114.898 189.633 115.316 139.815 138.732 139.014C190.412 137.247 217.156 113.578 198.466 94.3807C165.658 60.682 148.756 66.114 149.904 39.1838C151.051 12.2537 102.503 -17.4461 92.2716 15.0065Z" fill="#EEEEEE"/>
<g id="Group_2">
<path id="Vector_2" d="M143.12 43.6149L37.864 65.3377C34.5105 66.0298 32.353 69.3094 33.0451 72.6629L46.6023 138.353C47.2944 141.707 50.574 143.864 53.9275 143.172L159.183 121.449C162.537 120.757 164.694 117.477 164.002 114.124L150.445 48.4338C149.753 45.0803 146.473 42.9228 143.12 43.6149Z" fill="#CACACA"/>
<path id="Vector_3" d="M140.03 51.5021L127.908 54.004C125.896 54.4192 124.601 56.387 125.017 58.3991L127.518 70.5215C127.934 72.5336 129.901 73.8281 131.914 73.4129L144.036 70.911C146.048 70.4958 147.343 68.528 146.927 66.5159L144.425 54.3935C144.01 52.3814 142.042 51.0869 140.03 51.5021Z" fill="white"/>
<path id="Vector_4" d="M91.5108 102.672L50.6081 111.114C50.474 111.142 50.3877 111.273 50.4154 111.407L51.6528 117.403C51.6805 117.537 51.8117 117.624 51.9459 117.596L92.8486 109.154C92.9827 109.127 93.069 108.995 93.0413 108.861L91.8038 102.865C91.7761 102.731 91.645 102.645 91.5108 102.672Z" fill="white"/>
<path id="Vector_5" d="M111.591 111.577L53.1901 123.63C53.056 123.657 52.9697 123.788 52.9974 123.923L54.2349 129.919C54.2626 130.053 54.3937 130.139 54.5279 130.111L112.929 118.059C113.063 118.031 113.149 117.9 113.122 117.766L111.884 111.77C111.857 111.635 111.725 111.549 111.591 111.577Z" fill="white"/>
<path id="Vector_6" d="M162.487 138.486C172.241 138.486 180.148 130.579 180.148 120.825C180.148 111.071 172.241 103.164 162.487 103.164C152.733 103.164 144.826 111.071 144.826 120.825C144.826 130.579 152.733 138.486 162.487 138.486Z" fill="#CACACA" stroke="white" stroke-width="13.2857" stroke-miterlimit="10"/>
<path id="Vector_7" d="M169.291 119.345H164.262C164.223 119.345 164.184 119.338 164.149 119.323C164.113 119.308 164.08 119.286 164.053 119.259C164.025 119.231 164.003 119.199 163.988 119.163C163.974 119.127 163.966 119.088 163.966 119.05V114.021C163.966 113.628 163.81 113.252 163.533 112.975C163.255 112.697 162.879 112.542 162.487 112.542C162.095 112.542 161.718 112.697 161.441 112.975C161.164 113.252 161.008 113.628 161.008 114.021V119.05C161.008 119.088 161 119.127 160.985 119.163C160.97 119.199 160.949 119.231 160.921 119.259C160.894 119.286 160.861 119.308 160.825 119.323C160.789 119.338 160.751 119.345 160.712 119.345H155.683C155.293 119.349 154.921 119.506 154.646 119.783C154.372 120.06 154.218 120.434 154.218 120.824C154.218 121.214 154.372 121.589 154.646 121.866C154.921 122.143 155.293 122.3 155.683 122.304H160.712C160.791 122.304 160.866 122.335 160.922 122.39C160.977 122.446 161.008 122.521 161.008 122.599V127.628C161.008 128.021 161.164 128.397 161.441 128.674C161.719 128.952 162.095 129.107 162.487 129.107C162.88 129.107 163.256 128.952 163.533 128.674C163.811 128.397 163.966 128.021 163.966 127.628V122.599C163.966 122.521 163.998 122.446 164.053 122.39C164.109 122.335 164.184 122.304 164.262 122.304H169.291C169.681 122.3 170.054 122.143 170.328 121.866C170.603 121.589 170.757 121.214 170.757 120.824C170.757 120.434 170.603 120.06 170.328 119.783C170.054 119.506 169.681 119.349 169.291 119.345Z" fill="white"/>
</g>
</g>
</svg>
