<svg xmlns="http://www.w3.org/2000/svg" width="24" height="24" viewBox="0 0 24 24" fill="none">
  <path d="M18.222 17C19.617 18.988 20.284 20.047 19.887 20.9C19.847 20.9853 19.8003 21.0677 19.747 21.147C19.172 22 17.687 22 14.717 22H9.28301C6.31301 22 4.82901 22 4.25401 21.147C4.20155 21.0681 4.15476 20.9855 4.11401 20.9C3.71701 20.048 4.38401 18.988 5.77901 17M14.5 9C14.5 9.66304 14.2366 10.2989 13.7678 10.7678C13.2989 11.2366 12.663 11.5 12 11.5C11.337 11.5 10.7011 11.2366 10.2322 10.7678C9.7634 10.2989 9.50001 9.66304 9.50001 9C9.50001 8.33696 9.7634 7.70107 10.2322 7.23223C10.7011 6.76339 11.337 6.5 12 6.5C12.663 6.5 13.2989 6.76339 13.7678 7.23223C14.2366 7.70107 14.5 8.33696 14.5 9Z" stroke="#FF8C1A" stroke-width="1.5" stroke-linecap="round" stroke-linejoin="round"/>
  <path d="M13.257 17.494C12.9192 17.819 12.4687 18.0005 12 18.0005C11.5313 18.0005 11.0808 17.819 10.743 17.494C7.65401 14.501 3.51501 11.158 5.53301 6.304C6.62601 3.679 9.24601 2 12 2C14.754 2 17.375 3.68 18.467 6.304C20.483 11.151 16.354 14.511 13.257 17.494Z" stroke="#FF8C1A" stroke-width="1.5" stroke-linecap="round" stroke-linejoin="round"/>
</svg>