<svg xmlns="http://www.w3.org/2000/svg" width="50" height="50" viewBox="0 0 50 50" fill="none">
  <path d="M31.2494 6.2501H18.7494V2.08344H31.2494V6.2501ZM22.9161 29.1668H27.0827V16.6668H22.9161V29.1668ZM39.5827 27.0834C41.0411 27.0834 42.4161 27.3543 43.7494 27.8126V27.0834C43.7494 22.6668 42.2077 18.6043 39.6452 15.3959L42.6036 12.4376C41.6661 11.3751 40.7286 10.4168 39.6661 9.5001L36.7077 12.5001C33.4786 9.8751 29.4161 8.33344 24.9994 8.33344C20.0266 8.33344 15.2574 10.3089 11.7411 13.8252C8.22483 17.3415 6.24939 22.1106 6.24939 27.0834C6.24939 32.0562 8.22483 36.8254 11.7411 40.3417C15.2574 43.858 20.0266 45.8334 24.9994 45.8334C26.2286 45.8334 27.4161 45.7084 28.5619 45.4793C27.9161 44.2709 27.4577 42.9168 27.2494 41.4793C26.4994 41.5834 25.7702 41.6668 24.9994 41.6668C16.9369 41.6668 10.4161 35.1459 10.4161 27.0834C10.4161 19.0209 16.9369 12.5001 24.9994 12.5001C33.0619 12.5001 39.5827 19.0209 39.5827 27.0834ZM35.4161 33.3334V45.8334L45.8327 39.5834L35.4161 33.3334Z" fill="#1F1F1F"/>
</svg>