<svg xmlns="http://www.w3.org/2000/svg" width="51" height="50" viewBox="0 0 51 50" fill="none">
  <path d="M21.7258 26.0529L21.7164 26.0623C21.5596 26.0895 21.4169 26.1695 21.3117 26.2889C21.2695 26.3436 21.2617 26.4389 21.3227 26.5311L19.982 28.1248H21.7586L23.2648 26.0233H22.093C21.9695 26.0223 21.8461 26.0318 21.7242 26.0514M27.8555 26.0233L29.3555 28.1248H31.0492L29.7211 26.5311C29.7446 26.4955 29.7581 26.4543 29.7603 26.4117C29.7625 26.3691 29.7533 26.3267 29.7336 26.2889C29.6773 26.1873 29.5383 26.1045 29.3273 26.0592C29.2038 26.0354 29.0782 26.0233 28.9523 26.0233H27.8555ZM42.7602 42.1873L40.0758 38.9639C40.2408 38.7738 40.3351 38.5326 40.343 38.2811C40.3418 38.1658 40.3151 38.0522 40.2649 37.9485C40.2146 37.8448 40.142 37.7534 40.0523 37.6811C39.9128 37.5647 39.7371 37.5006 39.5555 37.4998H36.0523L39.4008 42.1873H42.7602ZM11.6727 42.1873L15.0352 37.4998H11.443C11.2356 37.501 11.0369 37.5835 10.8897 37.7296C10.7424 37.8757 10.6583 38.0737 10.6555 38.2811C10.6555 38.4951 10.7492 38.7389 10.8961 38.9264L8.15234 42.1873H11.6727ZM17.2758 34.3748H14.7242L17.3523 31.2498H17.4727C17.4545 31.2226 17.4388 31.1939 17.4258 31.1639C17.3586 31.0154 17.3586 30.8467 17.3586 30.7201C17.3586 30.4311 17.718 30.1889 18.1398 30.1889H20.2773L17.2758 34.3748ZM33.8211 34.3748H36.2539L33.6508 31.2498H33.5258C33.5453 31.2213 33.5621 31.1909 33.5758 31.1592C33.6398 31.0108 33.6398 30.8467 33.6398 30.7201C33.6398 30.4311 33.2805 30.1889 32.8586 30.1889H30.8305L33.8211 34.3748Z" fill="#1F1F1F"/>
  <path d="M9.40625 1.5625C7.45857 1.5625 5.59065 2.33621 4.21343 3.71343C2.83621 5.09065 2.0625 6.95857 2.0625 8.90625V41.0938C2.0625 43.0414 2.83621 44.9093 4.21343 46.2866C5.59065 47.6638 7.45857 48.4375 9.40625 48.4375H41.5938C43.5414 48.4375 45.4093 47.6638 46.7866 46.2866C48.1638 44.9093 48.9375 43.0414 48.9375 41.0938V8.90625C48.9375 6.95857 48.1638 5.09065 46.7866 3.71343C45.4093 2.33621 43.5414 1.5625 41.5938 1.5625H9.40625ZM45.8125 18.8016V40.9375C45.8125 42.0978 45.3516 43.2106 44.5311 44.0311C43.7106 44.8516 42.5978 45.3125 41.4375 45.3125H39.4313L27.9891 28.125L26.6 26.0234H24.5063L11.675 45.3125H9.5625C8.40218 45.3125 7.28938 44.8516 6.46891 44.0311C5.64844 43.2106 5.1875 42.0978 5.1875 40.9375V18.8047C9.62969 19.0953 12.1016 20.6234 14.5734 22.1531C16.6703 23.45 18.7672 24.7469 22.0672 25.2906C22.3484 25.1188 22.7172 25 23.0312 25H28.1094C28.4188 25 28.7766 25.1172 29.0422 25.2844C32.3156 24.7375 34.3875 23.4469 36.4625 22.1562C38.9156 20.6281 41.3688 19.0984 45.8125 18.8016ZM37.1766 45.3125H13.9141L15.7953 42.1875H35.2875L37.1766 45.3125ZM23.0156 30.1891L24.2594 28.125H26.7906L28.0375 30.1891H23.0156ZM20.4969 34.375H30.5672L32.4547 37.5H18.6172L20.4969 34.375Z" fill="#1F1F1F"/>
</svg>