<svg xmlns="http://www.w3.org/2000/svg" width="51" height="50" viewBox="0 0 51 50" fill="none">
  <path d="M34.8756 33.8542L40.834 37.375L39.2715 39.9167L31.7507 35.4167V25H34.8756V33.8542ZM48.4173 33.3333C48.4173 41.3958 41.8965 47.9167 33.834 47.9167C28.8757 47.9167 24.5215 45.4375 21.8757 41.6667H8.83398V25H2.58398L23.4173 6.25L38.0006 19.3542C44.0215 21.1458 48.4173 26.7292 48.4173 33.3333ZM44.2506 33.3333C44.2506 27.5833 39.584 22.9167 33.834 22.9167C28.084 22.9167 23.4173 27.5833 23.4173 33.3333C23.4173 39.0833 28.084 43.75 33.834 43.75C39.584 43.75 44.2506 39.0833 44.2506 33.3333Z" fill="#1F1F1F"/>
</svg>